<svg width="96" height="96" viewBox="0 0 96 96" fill="none" xmlns="http://www.w3.org/2000/svg">
<g id="heroicons-outline/beaker">
<path id="Vector" d="M38.9999 12.4163V35.2721C38.9999 37.659 38.0517 39.9482 36.3639 41.636L19.9999 58M38.9999 12.4163C37.9953 12.5097 36.9952 12.6186 35.9999 12.7427M38.9999 12.4163C41.9629 12.1408 44.9649 12 47.9999 12C51.0348 12 54.0369 12.1408 56.9999 12.4163M56.9999 12.4163V35.2721C56.9999 37.659 57.9481 39.9482 59.6359 41.636L79.1999 61.2M56.9999 12.4163C58.0045 12.5097 59.0045 12.6186 59.9999 12.7427M79.1999 61.2L72.9195 62.7701C64.5825 64.8543 55.6863 63.8432 47.9999 60C40.3135 56.1568 31.4173 55.1457 23.0803 57.2299L19.9999 58M79.1999 61.2L84.8087 66.8088C89.7363 71.7364 87.4108 80.0809 80.5416 81.2537C69.9643 83.0594 59.0919 84 47.9999 84C36.9079 84 26.0355 83.0594 15.4582 81.2537C8.58898 80.0809 6.2635 71.7364 11.1911 66.8088L19.9999 58" stroke="#DDDDDD" stroke-width="6" stroke-linecap="round" stroke-linejoin="round"/>
</g>
</svg>
