<svg width="96" height="96" viewBox="0 0 96 96" fill="none" xmlns="http://www.w3.org/2000/svg">
<g id="heroicons-outline/chat-bubble-left-right">
<path id="Vector" d="M81 34.0441C84.5362 35.1819 87 38.5568 87 42.4329V59.5751C87 64.1217 83.6104 67.977 79.0789 68.3468C77.7232 68.4575 76.3635 68.5542 75 68.637V81L63 69C57.585 68.9999 52.2224 68.7792 46.9209 68.3465C45.7277 68.2491 44.6136 67.91 43.6198 67.3802M81 34.0441C80.3944 33.8493 79.7572 33.72 79.0957 33.6651C73.7887 33.2246 68.4205 33 62.9999 33C57.5793 33 52.2112 33.2246 46.9043 33.6651C42.38 34.0406 39 37.8929 39 42.4328V59.5748C39 62.924 40.8394 65.8982 43.6198 67.3802M81 34.0441V26.5492C81 20.0636 76.393 14.4426 69.9613 13.6076C61.7913 12.547 53.4601 12 45.0011 12C36.5413 12 28.2093 12.5471 20.0385 13.608C13.6069 14.443 9 20.0639 9 26.5495V51.4506C9 57.9362 13.6069 63.5571 20.0386 64.3921C22.3464 64.6918 24.6672 64.9504 27 65.1673V84L43.6198 67.3802" stroke="#DDDDDD" stroke-width="6" stroke-linecap="round" stroke-linejoin="round"/>
</g>
</svg>
