<svg width="476" height="164" viewBox="0 0 476 164" fill="none" xmlns="http://www.w3.org/2000/svg">
<path d="M174.344 10.112C174.344 9.45067 174.152 8.93333 173.768 8.56C173.384 8.176 172.856 7.984 172.184 7.984H168.968V6.8H172.184C173.229 6.8 174.067 7.09867 174.696 7.696C175.325 8.29333 175.64 9.09867 175.64 10.112H174.344ZM168.28 18V6.8H169.48V18H168.28ZM168.968 13.424V12.24H172.184C172.856 12.24 173.384 12.0533 173.768 11.68C174.152 11.296 174.344 10.7733 174.344 10.112H175.64C175.64 11.1147 175.325 11.92 174.696 12.528C174.067 13.1253 173.229 13.424 172.184 13.424H168.968ZM180.515 18.192C179.747 18.192 179.065 18.016 178.467 17.664C177.881 17.312 177.417 16.8213 177.075 16.192C176.745 15.5627 176.579 14.832 176.579 14C176.579 13.168 176.745 12.4373 177.075 11.808C177.417 11.1787 177.881 10.688 178.467 10.336C179.065 9.984 179.747 9.808 180.515 9.808C181.294 9.808 181.977 9.984 182.563 10.336C183.15 10.688 183.609 11.1787 183.939 11.808C184.281 12.4373 184.451 13.168 184.451 14C184.451 14.832 184.281 15.5627 183.939 16.192C183.609 16.8213 183.15 17.312 182.563 17.664C181.977 18.016 181.294 18.192 180.515 18.192ZM180.515 17.024C181.049 17.024 181.518 16.9013 181.923 16.656C182.339 16.4 182.665 16.048 182.899 15.6C183.134 15.1413 183.251 14.608 183.251 14C183.251 13.3813 183.134 12.848 182.899 12.4C182.665 11.952 182.339 11.6053 181.923 11.36C181.518 11.104 181.049 10.976 180.515 10.976C179.982 10.976 179.507 11.104 179.091 11.36C178.686 11.6053 178.366 11.952 178.131 12.4C177.897 12.848 177.779 13.3813 177.779 14C177.779 14.608 177.897 15.1413 178.131 15.6C178.366 16.048 178.686 16.4 179.091 16.656C179.507 16.9013 179.982 17.024 180.515 17.024ZM188.911 18C188.25 18 187.706 17.7867 187.279 17.36C186.852 16.9333 186.639 16.3573 186.639 15.632V7.824H187.839V15.552C187.839 16.0213 187.935 16.352 188.127 16.544C188.33 16.736 188.66 16.832 189.119 16.832H190.111L190.191 17.008V18H188.911ZM185.263 11.168V10H190.191V11.168H185.263ZM195.206 18.192C194.448 18.192 193.776 18.016 193.189 17.664C192.603 17.312 192.144 16.8213 191.813 16.192C191.483 15.5627 191.317 14.832 191.317 14C191.317 13.168 191.477 12.4373 191.797 11.808C192.128 11.1787 192.581 10.688 193.157 10.336C193.744 9.984 194.416 9.808 195.174 9.808C195.92 9.808 196.571 9.98933 197.126 10.352C197.691 10.704 198.134 11.2053 198.454 11.856C198.774 12.496 198.934 13.2427 198.934 14.096V14.24L198.694 14.464H192.021V13.296H198.23L197.701 13.52C197.659 12.9867 197.52 12.5333 197.286 12.16C197.051 11.776 196.752 11.4827 196.39 11.28C196.027 11.0773 195.622 10.976 195.174 10.976C194.683 10.976 194.235 11.0987 193.829 11.344C193.424 11.5787 193.104 11.9147 192.869 12.352C192.635 12.7893 192.517 13.296 192.517 13.872V14.08C192.517 14.656 192.629 15.168 192.853 15.616C193.088 16.0533 193.408 16.4 193.813 16.656C194.219 16.9013 194.683 17.024 195.206 17.024C195.728 17.024 196.176 16.9013 196.549 16.656C196.923 16.4107 197.216 16.0747 197.43 15.648H197.606L198.614 16.096C198.315 16.736 197.867 17.248 197.27 17.632C196.683 18.0053 195.995 18.192 195.206 18.192ZM200.768 18V10H201.936V12.32L201.584 12.016C201.723 11.568 201.952 11.1787 202.272 10.848C202.592 10.5173 202.965 10.2613 203.392 10.08C203.829 9.89867 204.293 9.808 204.784 9.808C205.36 9.808 205.872 9.93067 206.32 10.176C206.768 10.4213 207.115 10.784 207.36 11.264C207.616 11.744 207.744 12.3413 207.744 13.056V18H206.544V13.328C206.544 12.72 206.453 12.2507 206.272 11.92C206.091 11.5787 205.845 11.3387 205.536 11.2C205.237 11.0613 204.896 10.992 204.512 10.992C204.075 10.992 203.659 11.0987 203.264 11.312C202.88 11.5253 202.565 11.8347 202.32 12.24C202.085 12.6347 201.968 13.1147 201.968 13.68V18H200.768ZM212.354 18C211.693 18 211.149 17.7867 210.722 17.36C210.296 16.9333 210.082 16.3573 210.082 15.632V7.824H211.282V15.552C211.282 16.0213 211.378 16.352 211.57 16.544C211.773 16.736 212.104 16.832 212.562 16.832H213.554L213.634 17.008V18H212.354ZM208.706 11.168V10H213.634V11.168H208.706ZM215.553 18V10H216.753V18H215.553ZM216.161 8.432C215.916 8.432 215.708 8.34667 215.537 8.176C215.366 8.00533 215.281 7.79733 215.281 7.552C215.281 7.30667 215.366 7.09867 215.537 6.928C215.708 6.75733 215.916 6.672 216.161 6.672C216.406 6.672 216.614 6.75733 216.785 6.928C216.956 7.09867 217.041 7.30667 217.041 7.552C217.041 7.79733 216.956 8.00533 216.785 8.176C216.614 8.34667 216.406 8.432 216.161 8.432ZM222.367 18.192C221.663 18.192 221.023 18.0107 220.447 17.648C219.881 17.2853 219.428 16.7893 219.087 16.16C218.756 15.5307 218.591 14.8107 218.591 14C218.591 13.1893 218.756 12.4693 219.087 11.84C219.428 11.2107 219.881 10.7147 220.447 10.352C221.023 9.98933 221.663 9.808 222.367 9.808C222.911 9.808 223.412 9.92 223.871 10.144C224.329 10.3573 224.724 10.6613 225.055 11.056C225.385 11.44 225.631 11.8987 225.791 12.432V15.568C225.631 16.0907 225.385 16.5493 225.055 16.944C224.724 17.3387 224.329 17.648 223.871 17.872C223.412 18.0853 222.911 18.192 222.367 18.192ZM222.415 17.024C222.948 17.024 223.417 16.896 223.823 16.64C224.239 16.384 224.564 16.032 224.799 15.584C225.044 15.1253 225.167 14.5973 225.167 14C225.167 13.4027 225.044 12.88 224.799 12.432C224.564 11.9733 224.239 11.616 223.823 11.36C223.417 11.104 222.948 10.976 222.415 10.976C221.913 10.976 221.46 11.104 221.055 11.36C220.66 11.616 220.351 11.9733 220.127 12.432C219.903 12.88 219.791 13.4027 219.791 14C219.791 14.5973 219.903 15.1253 220.127 15.584C220.351 16.032 220.66 16.384 221.055 16.64C221.46 16.896 221.913 17.024 222.415 17.024ZM225.199 18V15.008L225.391 14L225.199 12.992V10H226.367V18H225.199ZM228.762 18V6.48L229.914 6.336L229.962 6.464V18H228.762ZM242.847 10V18H241.679V15.68L242.031 15.984C241.893 16.432 241.663 16.8213 241.343 17.152C241.034 17.4827 240.661 17.7387 240.223 17.92C239.786 18.1013 239.322 18.192 238.831 18.192C238.255 18.192 237.743 18.0693 237.295 17.824C236.858 17.5787 236.511 17.216 236.255 16.736C235.999 16.256 235.871 15.6587 235.871 14.944V10H237.071V14.672C237.071 15.2693 237.162 15.7387 237.343 16.08C237.525 16.4213 237.77 16.6613 238.079 16.8C238.389 16.9387 238.73 17.008 239.103 17.008C239.551 17.008 239.967 16.9013 240.351 16.688C240.735 16.4747 241.045 16.1653 241.279 15.76C241.525 15.3547 241.647 14.8747 241.647 14.32V10H242.847ZM247.732 18.192C246.911 18.192 246.217 17.9947 245.652 17.6C245.087 17.1947 244.713 16.6293 244.532 15.904L245.636 15.632L245.812 15.664C245.929 16.0907 246.175 16.4267 246.548 16.672C246.921 16.9067 247.359 17.024 247.86 17.024C248.361 17.024 248.788 16.912 249.14 16.688C249.503 16.4533 249.684 16.1493 249.684 15.776C249.684 15.4667 249.577 15.2213 249.364 15.04C249.161 14.848 248.852 14.704 248.436 14.608L246.964 14.272C246.217 14.1013 245.668 13.8293 245.316 13.456C244.975 13.072 244.804 12.6187 244.804 12.096C244.804 11.648 244.927 11.2533 245.172 10.912C245.417 10.5707 245.753 10.304 246.18 10.112C246.617 9.90933 247.113 9.808 247.668 9.808C248.479 9.808 249.161 10.0107 249.716 10.416C250.271 10.8213 250.639 11.392 250.82 12.128L249.7 12.368L249.524 12.336C249.417 11.8987 249.183 11.5627 248.82 11.328C248.468 11.0933 248.073 10.976 247.636 10.976C247.177 10.976 246.793 11.0773 246.484 11.28C246.185 11.4827 246.036 11.7387 246.036 12.048C246.036 12.3147 246.132 12.5387 246.324 12.72C246.527 12.8907 246.847 13.024 247.284 13.12L248.772 13.456C249.508 13.6267 250.047 13.8987 250.388 14.272C250.74 14.6453 250.916 15.12 250.916 15.696C250.916 16.208 250.777 16.6507 250.5 17.024C250.223 17.3973 249.844 17.6853 249.364 17.888C248.895 18.0907 248.351 18.192 247.732 18.192ZM256.066 18.192C255.309 18.192 254.637 18.016 254.05 17.664C253.463 17.312 253.005 16.8213 252.674 16.192C252.343 15.5627 252.178 14.832 252.178 14C252.178 13.168 252.338 12.4373 252.658 11.808C252.989 11.1787 253.442 10.688 254.018 10.336C254.605 9.984 255.277 9.808 256.034 9.808C256.781 9.808 257.431 9.98933 257.986 10.352C258.551 10.704 258.994 11.2053 259.314 11.856C259.634 12.496 259.794 13.2427 259.794 14.096V14.24L259.554 14.464H252.882V13.296H259.09L258.562 13.52C258.519 12.9867 258.381 12.5333 258.146 12.16C257.911 11.776 257.613 11.4827 257.25 11.28C256.887 11.0773 256.482 10.976 256.034 10.976C255.543 10.976 255.095 11.0987 254.69 11.344C254.285 11.5787 253.965 11.9147 253.73 12.352C253.495 12.7893 253.378 13.296 253.378 13.872V14.08C253.378 14.656 253.49 15.168 253.714 15.616C253.949 16.0533 254.269 16.4 254.674 16.656C255.079 16.9013 255.543 17.024 256.066 17.024C256.589 17.024 257.037 16.9013 257.41 16.656C257.783 16.4107 258.077 16.0747 258.29 15.648H258.466L259.474 16.096C259.175 16.736 258.727 17.248 258.13 17.632C257.543 18.0053 256.855 18.192 256.066 18.192ZM261.629 18V10H262.797V12.32L262.445 12.016C262.626 11.3973 262.973 10.9067 263.485 10.544C264.007 10.1813 264.594 10 265.245 10H266.077V11.168H265.053C264.615 11.168 264.226 11.2747 263.885 11.488C263.554 11.7013 263.293 11.9947 263.101 12.368C262.919 12.7413 262.829 13.1787 262.829 13.68V18H261.629ZM274.01 21.392C273.37 21.392 272.805 21.2907 272.314 21.088C271.834 20.8853 271.429 20.608 271.098 20.256C270.778 19.904 270.538 19.4987 270.378 19.04L271.434 18.656H271.61C271.749 19.1147 272.032 19.4987 272.458 19.808C272.896 20.1173 273.424 20.272 274.042 20.272C274.565 20.272 275.018 20.1547 275.402 19.92C275.797 19.6853 276.101 19.36 276.314 18.944C276.538 18.5387 276.65 18.064 276.65 17.52V14.848L276.874 13.84L276.682 12.832V10H277.85V17.232C277.85 18.0213 277.701 18.7307 277.402 19.36C277.104 19.9893 276.666 20.4853 276.09 20.848C275.525 21.2107 274.832 21.392 274.01 21.392ZM273.85 17.904C273.146 17.904 272.506 17.7333 271.93 17.392C271.365 17.04 270.912 16.56 270.57 15.952C270.24 15.3333 270.074 14.6347 270.074 13.856C270.074 13.0667 270.24 12.368 270.57 11.76C270.912 11.152 271.365 10.6773 271.93 10.336C272.506 9.984 273.146 9.808 273.85 9.808C274.394 9.808 274.896 9.91467 275.354 10.128C275.813 10.3307 276.208 10.624 276.538 11.008C276.869 11.3813 277.114 11.824 277.274 12.336V15.376C277.114 15.8773 276.869 16.32 276.538 16.704C276.208 17.088 275.813 17.3867 275.354 17.6C274.896 17.8027 274.394 17.904 273.85 17.904ZM273.898 16.736C274.432 16.736 274.901 16.6187 275.306 16.384C275.722 16.1387 276.048 15.7973 276.282 15.36C276.528 14.9227 276.65 14.4213 276.65 13.856C276.65 13.28 276.528 12.7787 276.282 12.352C276.048 11.9147 275.722 11.5787 275.306 11.344C274.901 11.0987 274.432 10.976 273.898 10.976C273.397 10.976 272.944 11.0987 272.538 11.344C272.144 11.5787 271.834 11.9147 271.61 12.352C271.386 12.7787 271.274 13.28 271.274 13.856C271.274 14.4213 271.386 14.9227 271.61 15.36C271.834 15.7973 272.144 16.1387 272.538 16.384C272.944 16.6187 273.397 16.736 273.898 16.736ZM280.166 18V10H281.334V12.32L280.982 12.016C281.163 11.3973 281.51 10.9067 282.022 10.544C282.544 10.1813 283.131 10 283.782 10H284.614V11.168H283.59C283.152 11.168 282.763 11.2747 282.422 11.488C282.091 11.7013 281.83 11.9947 281.638 12.368C281.456 12.7413 281.366 13.1787 281.366 13.68V18H280.166ZM289.124 18.192C288.356 18.192 287.673 18.016 287.076 17.664C286.489 17.312 286.025 16.8213 285.684 16.192C285.353 15.5627 285.188 14.832 285.188 14C285.188 13.168 285.353 12.4373 285.684 11.808C286.025 11.1787 286.489 10.688 287.076 10.336C287.673 9.984 288.356 9.808 289.124 9.808C289.902 9.808 290.585 9.984 291.172 10.336C291.758 10.688 292.217 11.1787 292.548 11.808C292.889 12.4373 293.06 13.168 293.06 14C293.06 14.832 292.889 15.5627 292.548 16.192C292.217 16.8213 291.758 17.312 291.172 17.664C290.585 18.016 289.902 18.192 289.124 18.192ZM289.124 17.024C289.657 17.024 290.126 16.9013 290.532 16.656C290.948 16.4 291.273 16.048 291.508 15.6C291.742 15.1413 291.86 14.608 291.86 14C291.86 13.3813 291.742 12.848 291.508 12.4C291.273 11.952 290.948 11.6053 290.532 11.36C290.126 11.104 289.657 10.976 289.124 10.976C288.59 10.976 288.116 11.104 287.7 11.36C287.294 11.6053 286.974 11.952 286.74 12.4C286.505 12.848 286.388 13.3813 286.388 14C286.388 14.608 286.505 15.1413 286.74 15.6C286.974 16.048 287.294 16.4 287.7 16.656C288.116 16.9013 288.59 17.024 289.124 17.024ZM301.8 10V18H300.632V15.68L300.984 15.984C300.845 16.432 300.616 16.8213 300.296 17.152C299.986 17.4827 299.613 17.7387 299.176 17.92C298.738 18.1013 298.274 18.192 297.784 18.192C297.208 18.192 296.696 18.0693 296.248 17.824C295.81 17.5787 295.464 17.216 295.208 16.736C294.952 16.256 294.824 15.6587 294.824 14.944V10H296.024V14.672C296.024 15.2693 296.114 15.7387 296.296 16.08C296.477 16.4213 296.722 16.6613 297.032 16.8C297.341 16.9387 297.682 17.008 298.056 17.008C298.504 17.008 298.92 16.9013 299.304 16.688C299.688 16.4747 299.997 16.1653 300.232 15.76C300.477 15.3547 300.6 14.8747 300.6 14.32V10H301.8ZM308.124 18.192C307.58 18.192 307.079 18.0853 306.62 17.872C306.162 17.648 305.767 17.3387 305.436 16.944C305.106 16.5493 304.86 16.0907 304.7 15.568V12.432C304.86 11.8987 305.106 11.44 305.436 11.056C305.767 10.6613 306.162 10.3573 306.62 10.144C307.079 9.92 307.58 9.808 308.124 9.808C308.839 9.808 309.479 9.98933 310.044 10.352C310.61 10.7147 311.058 11.2107 311.388 11.84C311.73 12.4693 311.9 13.1893 311.9 14C311.9 14.8107 311.73 15.5307 311.388 16.16C311.058 16.7893 310.61 17.2853 310.044 17.648C309.479 18.0107 308.839 18.192 308.124 18.192ZM304.124 21.2V10H305.292V12.992L305.1 14L305.324 15.008V21.2H304.124ZM308.076 17.024C308.588 17.024 309.042 16.896 309.436 16.64C309.831 16.384 310.14 16.032 310.364 15.584C310.588 15.1253 310.7 14.5973 310.7 14C310.7 13.4027 310.588 12.88 310.364 12.432C310.14 11.9733 309.831 11.616 309.436 11.36C309.042 11.104 308.588 10.976 308.076 10.976C307.554 10.976 307.084 11.104 306.668 11.36C306.252 11.616 305.922 11.9733 305.676 12.432C305.442 12.88 305.324 13.4027 305.324 14C305.324 14.5973 305.442 15.1253 305.676 15.584C305.922 16.032 306.252 16.384 306.668 16.64C307.084 16.896 307.554 17.024 308.076 17.024Z" fill="#8D8D8D"/>
<path d="M49.7919 71.45V81.39H65.8219V90.63H49.7919V101.41H67.9219V111H37.8219V61.86H67.9219V71.45H49.7919ZM133.093 61.86V111H121.123V81.53L110.133 111H100.473L89.413 81.46V111H77.443V61.86H91.583L105.373 95.88L119.023 61.86H133.093ZM180.901 77.68C180.901 80.5267 180.248 83.14 178.941 85.52C177.634 87.8533 175.628 89.7433 172.921 91.19C170.214 92.6367 166.854 93.36 162.841 93.36H155.421V111H143.451V61.86H162.841C166.761 61.86 170.074 62.5367 172.781 63.89C175.488 65.2433 177.518 67.11 178.871 69.49C180.224 71.87 180.901 74.6 180.901 77.68ZM161.931 83.84C164.218 83.84 165.921 83.3033 167.041 82.23C168.161 81.1567 168.721 79.64 168.721 77.68C168.721 75.72 168.161 74.2033 167.041 73.13C165.921 72.0567 164.218 71.52 161.931 71.52H155.421V83.84H161.931ZM200.852 101.76H216.532V111H188.882V61.86H200.852V101.76ZM247.232 111.49C242.612 111.49 238.365 110.417 234.492 108.27C230.665 106.123 227.609 103.137 225.322 99.31C223.082 95.4367 221.962 91.0967 221.962 86.29C221.962 81.4833 223.082 77.1667 225.322 73.34C227.609 69.5133 230.665 66.5267 234.492 64.38C238.365 62.2333 242.612 61.16 247.232 61.16C251.852 61.16 256.075 62.2333 259.902 64.38C263.775 66.5267 266.809 69.5133 269.002 73.34C271.242 77.1667 272.362 81.4833 272.362 86.29C272.362 91.0967 271.242 95.4367 269.002 99.31C266.762 103.137 263.729 106.123 259.902 108.27C256.075 110.417 251.852 111.49 247.232 111.49ZM247.232 100.57C251.152 100.57 254.279 99.2633 256.612 96.65C258.992 94.0367 260.182 90.5833 260.182 86.29C260.182 81.95 258.992 78.4967 256.612 75.93C254.279 73.3167 251.152 72.01 247.232 72.01C243.265 72.01 240.092 73.2933 237.712 75.86C235.379 78.4267 234.212 81.9033 234.212 86.29C234.212 90.63 235.379 94.1067 237.712 96.72C240.092 99.2867 243.265 100.57 247.232 100.57ZM322.911 61.86L305.901 94.76V111H293.931V94.76L276.921 61.86H290.501L300.021 82.44L309.471 61.86H322.911ZM341.454 71.45V81.39H357.484V90.63H341.454V101.41H359.584V111H329.484V61.86H359.584V71.45H341.454ZM381.075 71.45V81.39H397.105V90.63H381.075V101.41H399.205V111H369.105V61.86H399.205V71.45H381.075ZM426.506 111.49C422.913 111.49 419.693 110.907 416.846 109.74C414 108.573 411.713 106.847 409.986 104.56C408.306 102.273 407.42 99.52 407.326 96.3H420.066C420.253 98.12 420.883 99.52 421.956 100.5C423.03 101.433 424.43 101.9 426.156 101.9C427.93 101.9 429.33 101.503 430.356 100.71C431.383 99.87 431.896 98.7267 431.896 97.28C431.896 96.0667 431.476 95.0633 430.636 94.27C429.843 93.4767 428.84 92.8233 427.626 92.31C426.46 91.7967 424.78 91.2133 422.586 90.56C419.413 89.58 416.823 88.6 414.816 87.62C412.81 86.64 411.083 85.1933 409.636 83.28C408.19 81.3667 407.466 78.87 407.466 75.79C407.466 71.2167 409.123 67.6467 412.436 65.08C415.75 62.4667 420.066 61.16 425.386 61.16C430.8 61.16 435.163 62.4667 438.476 65.08C441.79 67.6467 443.563 71.24 443.796 75.86H430.846C430.753 74.2733 430.17 73.0367 429.096 72.15C428.023 71.2167 426.646 70.75 424.966 70.75C423.52 70.75 422.353 71.1467 421.466 71.94C420.58 72.6867 420.136 73.7833 420.136 75.23C420.136 76.8167 420.883 78.0533 422.376 78.94C423.87 79.8267 426.203 80.7833 429.376 81.81C432.55 82.8833 435.116 83.91 437.076 84.89C439.083 85.87 440.81 87.2933 442.256 89.16C443.703 91.0267 444.426 93.43 444.426 96.37C444.426 99.17 443.703 101.713 442.256 104C440.856 106.287 438.803 108.107 436.096 109.46C433.39 110.813 430.193 111.49 426.506 111.49Z" fill="black"/>
<path d="M322.982 152.501C371.981 163 505.314 116.948 466.481 78.9846C417.94 31.5309 5.67507 22.7848 2.23456 85.7033C-2.01868 163.485 323.12 140.939 470.286 141.476" stroke="#5582F1" stroke-width="4" stroke-linecap="round"/>
</svg>
