<svg width="500" height="500" viewBox="0 0 500 500" fill="none" xmlns="http://www.w3.org/2000/svg">
<path d="M415.34 324.94C415.34 324.94 452.47 280.07 442.47 201.94C432.47 123.81 381.07 101.26 348.23 101C315.39 100.74 284 136.83 239.7 144.11C195.4 151.39 134 130.72 84.0597 148.2C34.1197 165.68 29.7997 270.79 70.4997 312.18C111.2 353.57 197.58 351.94 249 341.55C300.42 331.16 377.5 372.69 415.34 324.94Z" fill="white"/>
<path opacity="0.7" d="M415.34 324.94C415.34 324.94 452.47 280.07 442.47 201.94C432.47 123.81 381.07 101.26 348.23 101C315.39 100.74 284 136.83 239.7 144.11C195.4 151.39 134 130.72 84.0597 148.2C34.1197 165.68 29.7997 270.79 70.4997 312.18C111.2 353.57 197.58 351.94 249 341.55C300.42 331.16 377.5 372.69 415.34 324.94Z" fill="white"/>
<path d="M269.829 116.11C265.039 113.5 262.829 115.67 261.119 113.5C259.409 111.33 265.909 105.66 252.849 100.01C252.849 100.01 251.979 87.8204 234.139 87.3804C216.299 86.9404 221.079 99.5704 216.289 102.62C211.499 105.67 210.199 100.88 205.409 103.92C200.619 106.96 202.799 113.06 198.879 113.92C194.959 114.78 189.739 110.01 184.959 113.05C180.179 116.09 180.169 118.71 177.959 118.71C175.749 118.71 171.429 116.97 168.819 118.71C166.209 120.45 163.159 122.63 163.159 122.63H273.309C273.309 122.63 274.609 118.72 269.829 116.11Z" fill="white"/>
<path d="M269.829 116.11C265.039 113.5 262.829 115.67 261.119 113.5C259.409 111.33 265.909 105.66 252.849 100.01C252.849 100.01 251.979 87.8204 234.139 87.3804C216.299 86.9404 221.079 99.5704 216.289 102.62C211.499 105.67 210.199 100.88 205.409 103.92C200.619 106.96 202.799 113.06 198.879 113.92C194.959 114.78 189.739 110.01 184.959 113.05C180.179 116.09 180.169 118.71 177.959 118.71C175.749 118.71 171.429 116.97 168.819 118.71C166.209 120.45 163.159 122.63 163.159 122.63H273.309C273.309 122.63 274.609 118.72 269.829 116.11Z" fill="white"/>
<path opacity="0.7" d="M269.829 116.11C265.039 113.5 262.829 115.67 261.119 113.5C259.409 111.33 265.909 105.66 252.849 100.01C252.849 100.01 251.979 87.8204 234.139 87.3804C216.299 86.9404 221.079 99.5704 216.289 102.62C211.499 105.67 210.199 100.88 205.409 103.92C200.619 106.96 202.799 113.06 198.879 113.92C194.959 114.78 189.739 110.01 184.959 113.05C180.179 116.09 180.169 118.71 177.959 118.71C175.749 118.71 171.429 116.97 168.819 118.71C166.209 120.45 163.159 122.63 163.159 122.63H273.309C273.309 122.63 274.609 118.72 269.829 116.11Z" fill="white"/>
<path opacity="0.8" d="M403.409 163C400.769 161.55 399.569 162.76 398.609 161.55C397.649 160.34 401.249 157.23 394.039 154.1C394.039 154.1 393.559 147.37 383.699 147.1C373.839 146.83 376.489 153.83 373.849 155.52C371.209 157.21 370.479 154.52 367.849 156.24C365.219 157.96 366.409 161.24 364.239 161.77C362.069 162.3 359.189 159.6 356.549 161.28C353.909 162.96 353.909 164.41 352.699 164.41C351.489 164.41 349.099 163.41 347.699 164.41C346.299 165.41 344.569 166.57 344.569 166.57H405.389C405.389 166.57 406.059 164.39 403.409 163Z" fill="white"/>
<path opacity="0.8" d="M118.2 217.63C115.56 216.19 114.35 217.39 113.39 216.19C112.43 214.99 116.04 211.86 108.83 208.73C108.83 208.73 108.35 202 98.4896 201.73C88.6296 201.46 91.2796 208.46 88.6296 210.15C85.9796 211.84 85.2696 209.15 82.6296 210.87C79.9896 212.59 81.1796 215.87 79.0196 216.4C76.8596 216.93 74.0196 214.23 71.3296 215.92C68.6396 217.61 68.6796 219.04 67.4796 219.04C66.2796 219.04 63.8796 218.04 62.4296 219.04C60.9796 220.04 59.3096 221.2 59.3096 221.2H120.12C120.12 221.2 120.85 219.07 118.2 217.63Z" fill="white"/>
<path d="M253.089 305.53L251.479 139L284.329 138.68L283.369 311.01L253.089 305.53Z" fill="white" stroke="black" stroke-linecap="round" stroke-linejoin="round"/>
<path d="M255.439 142.46L255.699 210.46" stroke="black" stroke-width="0.75" stroke-linecap="round" stroke-linejoin="round"/>
<path d="M260.26 142.72V225.45" stroke="black" stroke-width="0.75" stroke-linecap="round" stroke-linejoin="round"/>
<path d="M265.609 142.46L266.149 226.52" stroke="black" stroke-width="0.75" stroke-linecap="round" stroke-linejoin="round"/>
<path d="M272.3 143.26V225.45" stroke="black" stroke-width="0.75" stroke-linecap="round" stroke-linejoin="round"/>
<path d="M278.46 143.53V286.77" stroke="black" stroke-width="0.75" stroke-linecap="round" stroke-linejoin="round"/>
<path d="M253.029 149.95L281.939 150.22" stroke="black" stroke-width="0.75" stroke-linecap="round" stroke-linejoin="round"/>
<path d="M253.3 160.66L281.68 161.46" stroke="black" stroke-width="0.75" stroke-linecap="round" stroke-linejoin="round"/>
<path d="M253.83 171.64L281.14 172.98" stroke="black" stroke-width="0.75" stroke-linecap="round" stroke-linejoin="round"/>
<path d="M253.56 182.62L281.68 184.49" stroke="black" stroke-width="0.75" stroke-linecap="round" stroke-linejoin="round"/>
<path d="M253.83 193.33L280.87 196.27" stroke="black" stroke-width="0.75" stroke-linecap="round" stroke-linejoin="round"/>
<path d="M284.329 138.68L309.779 139L307.849 293.94L283.369 311.01L284.329 138.68Z" fill="black" stroke="black" stroke-linecap="round" stroke-linejoin="round"/>
<path d="M307.159 142.72V225.45" stroke="white" stroke-width="0.75" stroke-linecap="round" stroke-linejoin="round"/>
<path d="M301.81 142.46L301.87 237.15" stroke="white" stroke-width="0.75" stroke-linecap="round" stroke-linejoin="round"/>
<path d="M295.119 143.26L295.249 240.62" stroke="white" stroke-width="0.75" stroke-linecap="round" stroke-linejoin="round"/>
<path d="M288.96 143.53V286.77" stroke="white" stroke-width="0.75" stroke-linecap="round" stroke-linejoin="round"/>
<path d="M309.109 149.89L285.479 150.22" stroke="white" stroke-width="0.75" stroke-linecap="round" stroke-linejoin="round"/>
<path d="M309.109 161.23L285.739 161.46" stroke="white" stroke-width="0.75" stroke-linecap="round" stroke-linejoin="round"/>
<path d="M309.739 171.62L286.279 172.98" stroke="white" stroke-width="0.75" stroke-linecap="round" stroke-linejoin="round"/>
<path d="M308.799 183.28L285.739 184.49" stroke="white" stroke-width="0.75" stroke-linecap="round" stroke-linejoin="round"/>
<path d="M308.8 193.99L286.55 196.27" stroke="white" stroke-width="0.75" stroke-linecap="round" stroke-linejoin="round"/>
<path d="M308.17 205.02L285.92 207.3" stroke="white" stroke-width="0.75" stroke-linecap="round" stroke-linejoin="round"/>
<path d="M308.17 214.78L285.29 218.32" stroke="white" stroke-width="0.75" stroke-linecap="round" stroke-linejoin="round"/>
<path d="M307.159 225.45L284.659 229.35" stroke="white" stroke-width="0.75" stroke-linecap="round" stroke-linejoin="round"/>
<path d="M282.679 84H280.449V119.12H282.679V84Z" fill="white" stroke="black" stroke-linecap="round" stroke-linejoin="round"/>
<path d="M267.389 125.27L267.279 116.86L294.839 117.3L295.059 125.83L267.389 125.27Z" fill="white" stroke="black" stroke-linecap="round" stroke-linejoin="round"/>
<path d="M282.439 125.49V117.3H294.839L295.059 125.83L282.439 125.49Z" fill="black" stroke="black" stroke-linecap="round" stroke-linejoin="round"/>
<path d="M251.479 139L258.239 131.27L284.329 130.95V138.68L251.479 139Z" fill="white" stroke="black" stroke-linecap="round" stroke-linejoin="round"/>
<path d="M284.33 130.95L303.98 131.59L309.78 139L284.33 138.68V130.95Z" fill="black" stroke="black" stroke-linecap="round" stroke-linejoin="round"/>
<path d="M258.239 131.27V125.47L284.319 125.27L284.329 130.95L258.239 131.27Z" fill="white" stroke="black" stroke-linecap="round" stroke-linejoin="round"/>
<path d="M284.319 125.27L304.019 125.94L303.979 131.59L284.329 130.95L284.319 125.27Z" fill="black" stroke="black" stroke-linecap="round" stroke-linejoin="round"/>
<path d="M383.36 285.14L402.94 289.54L404.41 250.88L419.58 244.02L440.63 248.92L439.65 311.57L450.91 313.53L449.93 416.78L394.62 399.19L350.08 385.97L383.36 285.14Z" fill="black"/>
<path d="M305.989 196.7L362.499 201.49L381.019 196.38L323.869 191.91L305.989 196.7Z" fill="white" stroke="black" stroke-linecap="round" stroke-linejoin="round"/>
<path d="M362.499 201.49L360.899 295.35L379.419 286.73L381.019 196.38L362.499 201.49Z" fill="black" stroke="black" stroke-linecap="round" stroke-linejoin="round"/>
<path d="M305.99 196.7L305.67 283.54L360.9 295.35L362.5 201.49L305.99 196.7Z" fill="white" stroke="black" stroke-linecap="round" stroke-linejoin="round"/>
<path d="M353.36 223.31L311.27 219.23V201.77L353.36 205.85V223.31Z" fill="white" stroke="black" stroke-miterlimit="10"/>
<path d="M317.295 216.644L316.285 208.239L317.412 208.352L318.018 214.329L318.788 208.49L319.802 208.591L320.576 214.585L321.111 208.722L322.243 208.835L321.294 217.044L320.041 216.919L319.309 211.325L318.548 216.769L317.295 216.644ZM322.585 217.173L323.761 209.008L325.418 209.173L326.669 217.581L325.498 217.464L325.301 215.967L323.971 215.834L323.793 217.294L322.585 217.173ZM324.093 214.834L325.17 214.942L324.618 210.726L324.599 210.724L324.093 214.834ZM327.418 217.656V209.373L328.401 209.472L330.148 214.616L330.059 212.348V209.637L331.188 209.75V218.033L330.298 217.944L328.504 212.621L328.575 214.802V217.772L327.418 217.656ZM332.859 218.2V211.009L331.895 210.913V209.821L335.037 210.135V211.227L334.11 211.134V218.326L332.859 218.2ZM335.744 218.489V210.206L338.507 210.482V211.569L336.999 211.419V213.828L338.432 213.971V215.035L336.999 214.892V217.527L338.563 217.684V218.771L335.744 218.489ZM339.491 218.864V210.581L341.34 210.766C341.759 210.807 342.094 210.926 342.347 211.12C342.6 211.312 342.783 211.572 342.895 211.9C343.011 212.228 343.068 212.617 343.068 213.066L343.073 216.803C343.073 217.346 343.014 217.791 342.895 218.14C342.78 218.487 342.592 218.735 342.333 218.884C342.074 219.034 341.729 219.087 341.298 219.044L339.491 218.864ZM340.746 218.01L341.158 218.051C341.304 218.066 341.426 218.048 341.523 217.999C341.623 217.949 341.696 217.851 341.743 217.705C341.793 217.556 341.818 217.342 341.818 217.063L341.813 212.973C341.813 212.549 341.762 212.24 341.659 212.045C341.556 211.849 341.375 211.738 341.115 211.713L340.746 211.676V218.01Z" fill="black"/>
<path d="M295.93 244.75L332.33 249.3L354.12 239.72L319.4 235.65L295.93 244.75Z" fill="white" stroke="black" stroke-linecap="round" stroke-linejoin="round"/>
<path d="M302.689 244.22L330.629 247.71L347.359 240.36L320.709 237.23L302.689 244.22Z" fill="white" stroke="black" stroke-width="0.75" stroke-linecap="round" stroke-linejoin="round"/>
<path d="M295.929 244.75L294.979 318.5L330.409 328.07L332.329 249.3L295.929 244.75Z" fill="white" stroke="black" stroke-linecap="round" stroke-linejoin="round"/>
<path d="M332.329 249.3L354.119 239.72L352.679 318.26L330.409 328.07L332.329 249.3Z" fill="black" stroke="black" stroke-linecap="round" stroke-linejoin="round"/>
<path d="M209.22 339.66L206.12 248.25L175.85 242.82L178.76 331.87L209.22 339.66Z" fill="white" stroke="black" stroke-linecap="round" stroke-linejoin="round"/>
<path d="M178.06 275.25L205.37 281.95" stroke="black" stroke-width="0.75" stroke-linecap="round" stroke-linejoin="round"/>
<path d="M179.399 278.47L205.639 285.16" stroke="black" stroke-width="0.75" stroke-linecap="round" stroke-linejoin="round"/>
<path d="M179.67 295.6L205.91 302.29" stroke="black" stroke-width="0.75" stroke-linecap="round" stroke-linejoin="round"/>
<path d="M178.33 292.92L205.64 300.15" stroke="black" stroke-width="0.75" stroke-linecap="round" stroke-linejoin="round"/>
<path d="M206.119 248.25L230.959 241.27L232.119 320.47L209.219 339.66L206.119 248.25Z" fill="black" stroke="black" stroke-linecap="round" stroke-linejoin="round"/>
<path d="M175.85 242.82L210.39 234.67L230.96 241.27L206.12 248.25L175.85 242.82Z" fill="white" stroke="black" stroke-linecap="round" stroke-linejoin="round"/>
<path d="M178.369 247.87L203.729 252.05L204.079 270.46L178.999 265.71L178.369 247.87Z" fill="white" stroke="black" stroke-linecap="round" stroke-linejoin="round"/>
<path d="M182.977 257.383L182.303 251.693L183.055 251.812L183.46 255.854L183.974 251.957L184.65 252.064L185.168 256.125L185.525 252.203L186.28 252.323L185.647 257.806L184.81 257.674L184.321 253.884L183.814 257.516L182.977 257.383ZM186.835 257.995V252.41L188.684 252.703V253.436L187.674 253.276V254.901L188.633 255.053V255.77L187.674 255.618V257.395L188.721 257.561V258.293L186.835 257.995ZM190.169 258.523L190.955 253.063L192.065 253.239L192.902 258.956L192.118 258.832L191.986 257.814L191.096 257.673L190.977 258.651L190.169 258.523ZM191.178 257.004L191.899 257.118L191.529 254.255L191.516 254.253L191.178 257.004ZM193.403 259.035V253.451L194.791 253.671C195.079 253.717 195.295 253.808 195.437 253.945C195.579 254.081 195.672 254.263 195.716 254.49C195.762 254.717 195.785 254.99 195.785 255.307C195.785 255.635 195.751 255.887 195.684 256.065C195.619 256.241 195.486 256.345 195.283 256.376C195.379 256.408 195.46 256.461 195.524 256.535C195.589 256.606 195.641 256.706 195.681 256.832C195.721 256.957 195.749 257.115 195.766 257.306C195.785 257.495 195.794 257.725 195.794 257.996C195.794 258.017 195.794 258.076 195.794 258.173C195.794 258.271 195.794 258.386 195.794 258.519C195.796 258.651 195.798 258.782 195.8 258.914C195.802 259.045 195.805 259.158 195.81 259.251C195.814 259.345 195.819 259.401 195.825 259.419L194.985 259.286C194.979 259.274 194.974 259.219 194.97 259.121C194.968 259.022 194.965 258.895 194.96 258.742C194.958 258.59 194.956 258.426 194.954 258.25C194.954 258.074 194.954 257.902 194.954 257.733C194.954 257.561 194.954 257.41 194.954 257.279C194.954 257.112 194.942 256.984 194.916 256.895C194.893 256.805 194.85 256.738 194.785 256.694C194.722 256.65 194.631 256.615 194.512 256.59L194.243 256.532V259.168L193.403 259.035ZM194.246 255.872L194.581 255.925C194.684 255.941 194.761 255.93 194.813 255.892C194.867 255.854 194.904 255.774 194.923 255.653C194.944 255.531 194.954 255.353 194.954 255.118V255.083C194.954 254.887 194.945 254.734 194.926 254.625C194.907 254.516 194.867 254.437 194.807 254.387C194.748 254.338 194.656 254.303 194.531 254.283L194.246 254.238V255.872ZM196.512 259.528V253.943L198.36 254.236V254.969L197.351 254.809V256.434L198.31 256.586V257.303L197.351 257.151V258.928L198.398 259.093V259.826L196.512 259.528Z" fill="black"/>
<path d="M182.815 264.458V258.874L183.655 259.007V261.266L184.407 261.385V259.126L185.247 259.259V264.843L184.407 264.71V262.115L183.655 261.996V264.591L182.815 264.458ZM186.093 264.977V259.393L186.933 259.526V265.11L186.093 264.977ZM187.779 265.244V259.66L189.167 259.88C189.455 259.926 189.671 260.017 189.813 260.154C189.955 260.291 190.048 260.472 190.091 260.699C190.137 260.927 190.16 261.199 190.16 261.516C190.16 261.844 190.127 262.097 190.06 262.274C189.995 262.45 189.862 262.554 189.659 262.585C189.755 262.617 189.836 262.67 189.9 262.744C189.965 262.816 190.017 262.915 190.057 263.042C190.097 263.166 190.125 263.324 190.142 263.515C190.16 263.704 190.17 263.934 190.17 264.205C190.17 264.226 190.17 264.285 190.17 264.383C190.17 264.48 190.17 264.595 190.17 264.728C190.172 264.86 190.174 264.991 190.176 265.123C190.178 265.254 190.181 265.367 190.185 265.461C190.19 265.554 190.195 265.61 190.201 265.628L189.361 265.495C189.355 265.484 189.35 265.429 189.346 265.331C189.344 265.231 189.34 265.105 189.336 264.952C189.334 264.799 189.332 264.635 189.33 264.459C189.33 264.283 189.33 264.111 189.33 263.942C189.33 263.771 189.33 263.619 189.33 263.488C189.33 263.321 189.317 263.193 189.292 263.105C189.269 263.014 189.226 262.947 189.161 262.903C189.098 262.859 189.007 262.825 188.888 262.799L188.619 262.741V265.377L187.779 265.244ZM188.622 262.081L188.957 262.135C189.059 262.151 189.137 262.14 189.189 262.102C189.243 262.064 189.28 261.984 189.299 261.862C189.32 261.74 189.33 261.562 189.33 261.327V261.293C189.33 261.096 189.321 260.943 189.302 260.834C189.283 260.726 189.243 260.646 189.183 260.597C189.124 260.547 189.032 260.513 188.907 260.493L188.622 260.447V262.081ZM190.906 265.74V260.156L191.746 260.289V265.873L190.906 265.74ZM192.592 266.007V260.423L193.25 260.527L194.419 264.063L194.36 262.53V260.703L195.115 260.822V266.407L194.519 266.312L193.319 262.654L193.366 264.128V266.13L192.592 266.007ZM196.982 266.76C196.65 266.707 196.383 266.532 196.18 266.236C195.978 265.937 195.876 265.49 195.876 264.893V262.466C195.876 262.216 195.899 261.997 195.945 261.808C195.993 261.618 196.066 261.464 196.165 261.344C196.265 261.223 196.394 261.139 196.553 261.095C196.712 261.048 196.903 261.042 197.127 261.078C197.369 261.116 197.566 261.184 197.719 261.283C197.871 261.379 197.988 261.503 198.07 261.655C198.153 261.806 198.211 261.985 198.242 262.19C198.274 262.396 198.289 262.626 198.289 262.88V263.277L197.506 263.153V262.569C197.506 262.317 197.48 262.134 197.427 262.02C197.377 261.906 197.281 261.838 197.139 261.816C196.982 261.791 196.874 261.836 196.813 261.951C196.753 262.064 196.722 262.279 196.722 262.594V265.015C196.722 265.366 196.747 265.621 196.798 265.782C196.85 265.94 196.957 266.032 197.12 266.058C197.279 266.083 197.391 266.024 197.456 265.88C197.523 265.734 197.556 265.479 197.556 265.115V264.363L197.133 264.296V263.677L198.289 263.86V266.909L197.913 266.85L197.785 266.281C197.739 266.466 197.641 266.599 197.49 266.681C197.342 266.764 197.173 266.79 196.982 266.76Z" fill="black"/>
<path d="M212.33 209.84L216.15 339.17L248.35 348.09L246.48 214.49L212.33 209.84Z" fill="white" stroke="black" stroke-linecap="round" stroke-linejoin="round"/>
<path d="M216.979 220.1L220.079 330.36" stroke="black" stroke-width="0.75" stroke-linecap="round" stroke-linejoin="round"/>
<path d="M216.79 213.52L216.89 216.81" stroke="black" stroke-width="0.75" stroke-linecap="round" stroke-linejoin="round"/>
<path d="M222.06 214.81L224.45 331.13" stroke="black" stroke-width="0.75" stroke-linecap="round" stroke-linejoin="round"/>
<path d="M227.409 216.09L229.069 332.67" stroke="black" stroke-width="0.75" stroke-linecap="round" stroke-linejoin="round"/>
<path d="M232.55 216.74L234.21 333.18" stroke="black" stroke-width="0.75" stroke-linecap="round" stroke-linejoin="round"/>
<path d="M238.109 218.45L239.599 335.5" stroke="black" stroke-width="0.75" stroke-linecap="round" stroke-linejoin="round"/>
<path d="M243.75 236.57L245 335.75" stroke="black" stroke-width="0.75" stroke-linecap="round" stroke-linejoin="round"/>
<path d="M243.569 218.58L243.699 231.87" stroke="black" stroke-width="0.75" stroke-linecap="round" stroke-linejoin="round"/>
<path d="M277.139 207.51L313.879 289.48V366.92L272.399 349.77L277.139 207.51Z" fill="black"/>
<path d="M296.18 258.5V282.84" stroke="white" stroke-width="0.75" stroke-linecap="round" stroke-linejoin="round"/>
<path d="M246.479 214.49L277.14 207.51V355.6L247.649 348.17L246.479 214.49Z" fill="black" stroke="black" stroke-linecap="round" stroke-linejoin="round"/>
<path d="M270.96 220.73L271.86 343.44" stroke="white" stroke-width="0.75" stroke-linecap="round" stroke-linejoin="round"/>
<path d="M270.92 213.18L270.94 216.81" stroke="white" stroke-width="0.75" stroke-linecap="round" stroke-linejoin="round"/>
<path d="M265.569 215.02L266.709 342.67" stroke="white" stroke-width="0.75" stroke-linecap="round" stroke-linejoin="round"/>
<path d="M260.43 216.2L261.17 342.67" stroke="white" stroke-width="0.75" stroke-linecap="round" stroke-linejoin="round"/>
<path d="M254.859 218.49L255.829 340" stroke="white" stroke-width="0.75" stroke-linecap="round" stroke-linejoin="round"/>
<path d="M249.409 219.19L250.859 338.66" stroke="white" stroke-width="0.75" stroke-linecap="round" stroke-linejoin="round"/>
<path d="M212.33 209.84L245.71 204.01L277.14 207.51L246.48 214.49L212.33 209.84Z" fill="white" stroke="black" stroke-linecap="round" stroke-linejoin="round"/>
<path d="M219.09 209.71L245.5 205.11L270.38 207.87L246.12 213.4L219.09 209.71Z" fill="white" stroke="black" stroke-width="0.75" stroke-linecap="round" stroke-linejoin="round"/>
<path d="M248.6 237.17L276.04 229.06V245.59L248.6 254.63V237.17Z" fill="white" stroke="black" stroke-miterlimit="10"/>
<path d="M256.655 250.19C256.05 250.379 255.576 250.337 255.233 250.065C254.894 249.789 254.72 249.281 254.713 248.541L254.696 246.816L256.054 246.394L256.071 248.047C256.073 248.237 256.085 248.41 256.107 248.565C256.134 248.718 256.184 248.831 256.258 248.903C256.333 248.976 256.447 248.988 256.601 248.94C256.754 248.892 256.868 248.811 256.94 248.697C257.013 248.579 257.06 248.432 257.083 248.256C257.106 248.076 257.116 247.869 257.114 247.635L257.04 240.264L258.446 239.827L258.519 247.126C258.527 247.921 258.365 248.584 258.033 249.117C257.705 249.649 257.246 250.007 256.655 250.19ZM261.895 248.561C261.416 248.71 261.023 248.726 260.717 248.608C260.414 248.489 260.189 248.243 260.041 247.87C259.894 247.497 259.817 247.003 259.811 246.388L259.767 241.967C259.761 241.41 259.826 240.912 259.962 240.474C260.098 240.035 260.317 239.662 260.619 239.355C260.921 239.048 261.319 238.818 261.812 238.664C262.182 238.549 262.496 238.512 262.753 238.554C263.009 238.595 263.217 238.707 263.377 238.888C263.536 239.067 263.653 239.309 263.726 239.617C263.803 239.92 263.843 240.281 263.847 240.698L263.892 245.12C263.898 245.735 263.833 246.273 263.697 246.734C263.565 247.193 263.351 247.576 263.056 247.881C262.761 248.185 262.374 248.412 261.895 248.561ZM261.882 247.287C262.057 247.233 262.188 247.137 262.274 247C262.36 246.863 262.416 246.678 262.442 246.446C262.471 246.209 262.484 245.919 262.481 245.575L262.436 241.071C262.431 240.65 262.39 240.338 262.311 240.134C262.235 239.927 262.073 239.861 261.825 239.938C261.569 240.018 261.397 240.183 261.309 240.435C261.22 240.683 261.178 241.023 261.182 241.455L261.227 245.964C261.231 246.316 261.248 246.601 261.278 246.819C261.311 247.033 261.374 247.179 261.466 247.256C261.562 247.333 261.7 247.343 261.882 247.287ZM265.198 247.424L265.102 237.757L267.1 237.136C267.565 236.991 267.937 236.951 268.214 237.015C268.492 237.076 268.694 237.248 268.819 237.532C268.948 237.812 269.015 238.211 269.021 238.731L269.024 239.028C269.029 239.53 268.97 239.963 268.847 240.328C268.728 240.688 268.524 240.978 268.235 241.196C268.477 241.205 268.671 241.297 268.817 241.472C268.966 241.643 269.073 241.876 269.139 242.171C269.205 242.463 269.24 242.795 269.244 243.169L269.246 243.416C269.249 244.062 269.183 244.609 269.047 245.059C268.911 245.505 268.696 245.868 268.4 246.147C268.105 246.427 267.718 246.641 267.239 246.79L265.198 247.424ZM266.593 245.844L267.091 245.689C267.276 245.632 267.423 245.544 267.53 245.426C267.641 245.303 267.72 245.134 267.767 244.917C267.814 244.701 267.836 244.418 267.832 244.071L267.825 243.291C267.82 242.822 267.773 242.495 267.683 242.31C267.597 242.12 267.419 242.067 267.15 242.15L266.558 242.335L266.593 245.844ZM266.546 241.231L267.066 241.069C267.188 241.031 267.288 240.982 267.364 240.921C267.441 240.861 267.5 240.78 267.541 240.679C267.582 240.575 267.608 240.44 267.621 240.274C267.637 240.108 267.643 239.9 267.641 239.651L267.635 239.069C267.632 238.809 267.608 238.618 267.561 238.497C267.514 238.375 267.443 238.305 267.348 238.287C267.257 238.268 267.138 238.281 266.991 238.327L266.519 238.473L266.546 241.231Z" fill="black"/>
<path d="M307.409 278.52L276.369 292.11L318.379 300.83L343.109 283.96L307.409 278.52Z" fill="white" stroke="black" stroke-linecap="round" stroke-linejoin="round"/>
<path d="M307.73 280.07L281 291.77L317.18 299.28L338.48 284.75L307.73 280.07Z" fill="white" stroke="black" stroke-width="0.75" stroke-linecap="round" stroke-linejoin="round"/>
<path d="M276.369 292.11L277.139 355.6L317.889 365.69L318.379 300.83L276.369 292.11Z" fill="white" stroke="black" stroke-linecap="round" stroke-linejoin="round"/>
<path d="M282.87 347.03L282.51 336.41L306.59 342.78V353.4L282.87 347.03Z" fill="black"/>
<path d="M279.779 301.08L308.149 307.32L308.539 327.94L280.479 321.08L279.779 301.08Z" fill="white" stroke="black" stroke-linecap="round" stroke-linejoin="round"/>
<path d="M284.595 312.822L283.816 306.146L284.685 306.328L285.152 311.066L285.746 306.551L286.528 306.715L287.126 311.481L287.539 306.927L288.411 307.111L287.68 313.469L286.713 313.266L286.148 308.819L285.561 313.025L284.595 312.822ZM289.052 313.758V307.245L291.189 307.694V308.549L290.023 308.304V310.198L291.131 310.431V311.267L290.023 311.035V313.107L291.232 313.361V314.215L289.052 313.758ZM292.905 314.567L293.814 308.245L295.096 308.515L296.063 315.23L295.157 315.04L295.005 313.846L293.977 313.63L293.839 314.763L292.905 314.567ZM294.071 312.854L294.904 313.029L294.477 309.668L294.462 309.665L294.071 312.854ZM296.642 315.352V308.839L298.246 309.176C298.579 309.246 298.828 309.365 298.992 309.533C299.156 309.7 299.264 309.918 299.315 310.185C299.368 310.453 299.394 310.771 299.394 311.141C299.394 311.524 299.356 311.817 299.278 312.02C299.204 312.221 299.049 312.334 298.815 312.359C298.926 312.402 299.019 312.469 299.094 312.558C299.169 312.646 299.229 312.764 299.275 312.915C299.321 313.062 299.353 313.248 299.373 313.472C299.394 313.693 299.405 313.962 299.405 314.278C299.405 314.302 299.405 314.372 299.405 314.485C299.405 314.598 299.405 314.733 299.405 314.888C299.408 315.042 299.41 315.195 299.412 315.349C299.415 315.502 299.418 315.634 299.423 315.743C299.428 315.853 299.434 315.918 299.441 315.939L298.471 315.736C298.464 315.722 298.458 315.658 298.453 315.543C298.45 315.427 298.447 315.279 298.442 315.1C298.439 314.922 298.437 314.731 298.435 314.525C298.435 314.321 298.435 314.12 298.435 313.922C298.435 313.722 298.435 313.546 298.435 313.393C298.435 313.198 298.42 313.048 298.391 312.944C298.365 312.837 298.314 312.756 298.239 312.701C298.167 312.646 298.062 312.601 297.924 312.564L297.613 312.48V315.555L296.642 315.352ZM297.616 311.712L298.004 311.793C298.122 311.818 298.211 311.809 298.272 311.768C298.334 311.727 298.377 311.636 298.398 311.495C298.423 311.354 298.435 311.147 298.435 310.873V310.833C298.435 310.603 298.424 310.425 298.402 310.297C298.38 310.169 298.334 310.074 298.264 310.012C298.197 309.951 298.091 309.906 297.946 309.875L297.616 309.806V311.712ZM300.234 316.106V309.594L302.371 310.042V310.897L301.205 310.652V312.547L302.313 312.779V313.616L301.205 313.383V315.455L302.414 315.709V316.564L300.234 316.106Z" fill="black"/>
<path d="M284.408 319.883V313.37L285.378 313.574V316.209L286.247 316.391V313.757L287.218 313.96V320.473L286.247 320.269V317.242L285.378 317.06V320.086L284.408 319.883ZM288.195 320.678V314.166L289.166 314.37V320.882L288.195 320.678ZM290.144 321.087V314.575L291.748 314.912C292.081 314.982 292.33 315.101 292.494 315.268C292.658 315.436 292.765 315.653 292.816 315.921C292.869 316.188 292.896 316.507 292.896 316.877C292.896 317.259 292.857 317.552 292.78 317.756C292.705 317.957 292.55 318.07 292.316 318.095C292.427 318.138 292.52 318.204 292.595 318.294C292.67 318.381 292.73 318.5 292.776 318.65C292.822 318.798 292.855 318.984 292.874 319.207C292.896 319.429 292.907 319.698 292.907 320.013C292.907 320.038 292.907 320.107 292.907 320.221C292.907 320.334 292.907 320.469 292.907 320.624C292.909 320.777 292.911 320.931 292.914 321.084C292.916 321.238 292.92 321.369 292.925 321.479C292.93 321.588 292.936 321.654 292.943 321.675L291.972 321.471C291.965 321.457 291.959 321.393 291.954 321.279C291.952 321.162 291.948 321.015 291.943 320.836C291.941 320.658 291.939 320.466 291.936 320.261C291.936 320.056 291.936 319.855 291.936 319.658C291.936 319.458 291.936 319.282 291.936 319.129C291.936 318.934 291.922 318.784 291.893 318.679C291.866 318.573 291.815 318.492 291.741 318.436C291.668 318.382 291.563 318.336 291.426 318.3L291.114 318.216V321.291L290.144 321.087ZM291.118 317.447L291.505 317.529C291.623 317.553 291.713 317.545 291.773 317.503C291.836 317.462 291.878 317.371 291.9 317.23C291.924 317.09 291.936 316.883 291.936 316.609V316.568C291.936 316.339 291.925 316.16 291.904 316.032C291.882 315.904 291.836 315.81 291.766 315.748C291.698 315.687 291.592 315.641 291.447 315.611L291.118 315.542V317.447ZM293.758 321.846V315.334L294.728 315.538V322.05L293.758 321.846ZM295.706 322.255V315.743L296.466 315.903L297.817 320.094L297.748 318.303V316.172L298.621 316.355V322.867L297.933 322.723L296.546 318.387L296.6 320.108V322.443L295.706 322.255ZM300.779 323.387C300.395 323.307 300.086 323.088 299.852 322.73C299.618 322.37 299.501 321.842 299.501 321.147V318.316C299.501 318.025 299.527 317.77 299.58 317.552C299.636 317.334 299.72 317.158 299.834 317.024C299.95 316.888 300.099 316.799 300.283 316.756C300.466 316.711 300.687 316.715 300.946 316.769C301.226 316.828 301.454 316.919 301.63 317.043C301.806 317.163 301.941 317.315 302.036 317.498C302.132 317.678 302.198 317.89 302.235 318.132C302.271 318.373 302.289 318.642 302.289 318.938V319.401L301.384 319.211V318.53C301.384 318.237 301.354 318.022 301.293 317.886C301.235 317.75 301.124 317.665 300.96 317.631C300.779 317.593 300.653 317.639 300.583 317.77C300.513 317.898 300.478 318.146 300.478 318.514V321.337C300.478 321.747 300.507 322.046 300.565 322.236C300.626 322.424 300.75 322.537 300.938 322.577C301.122 322.616 301.251 322.553 301.326 322.388C301.403 322.222 301.442 321.927 301.442 321.502V320.625L300.953 320.523V319.801L302.289 320.082V323.638L301.854 323.546L301.706 322.875C301.653 323.088 301.539 323.239 301.366 323.325C301.194 323.413 300.999 323.433 300.779 323.387Z" fill="black"/>
<path d="M318.67 264.94L317.89 365.69L360.19 377.33L363.3 272.7L318.67 264.94Z" fill="white" stroke="black" stroke-linecap="round" stroke-linejoin="round"/>
<path d="M324.199 269.48L323.229 357.3" stroke="black" stroke-width="0.75" stroke-linecap="round" stroke-linejoin="round"/>
<path d="M329.75 270.87L329.25 359.78" stroke="black" stroke-width="0.75" stroke-linecap="round" stroke-linejoin="round"/>
<path d="M336.969 272.81L336.689 362.61" stroke="black" stroke-width="0.75" stroke-linecap="round" stroke-linejoin="round"/>
<path d="M345.309 274.48L344.479 365.09" stroke="black" stroke-width="0.75" stroke-linecap="round" stroke-linejoin="round"/>
<path d="M354.75 276.15L352.27 366.86" stroke="black" stroke-width="0.75" stroke-linecap="round" stroke-linejoin="round"/>
<path d="M363.3 272.7L386.97 259.12L344.28 252.91L318.67 264.94L363.3 272.7Z" fill="white" stroke="black" stroke-linecap="round" stroke-linejoin="round"/>
<path d="M361.18 270.71L380.09 259.86L346 254.91L325.54 264.51L361.18 270.71Z" fill="white" stroke="black" stroke-width="0.75" stroke-linecap="round" stroke-linejoin="round"/>
<path d="M386.969 259.12L383.089 380.31L360.189 377.33L363.299 272.7L386.969 259.12Z" fill="black" stroke="black" stroke-linecap="round" stroke-linejoin="round"/>
<path d="M367.93 275.4L365.43 373.23" stroke="white" stroke-width="0.75" stroke-linecap="round" stroke-linejoin="round"/>
<path d="M374.19 271.15L371.97 367.57" stroke="white" stroke-width="0.75" stroke-linecap="round" stroke-linejoin="round"/>
<path d="M380.85 266.43L379.18 365.44" stroke="white" stroke-width="0.75" stroke-linecap="round" stroke-linejoin="round"/>
<path d="M329.35 290.79V310.75L319.69 309.19L320.56 303.32L310.02 311.99L320.31 321.04L320.62 316.67L336.83 320.41L337.45 294.54L329.35 290.79Z" fill="white" stroke="black" stroke-linecap="round" stroke-linejoin="round"/>
<path d="M322.499 316.07C322.499 316.306 322.429 316.536 322.298 316.732C322.167 316.928 321.98 317.081 321.762 317.17C321.544 317.26 321.304 317.283 321.073 317.236C320.842 317.19 320.63 317.075 320.464 316.908C320.298 316.74 320.186 316.527 320.141 316.296C320.096 316.064 320.121 315.825 320.213 315.608C320.304 315.39 320.458 315.205 320.655 315.076C320.852 314.946 321.083 314.878 321.319 314.88C321.475 314.88 321.629 314.911 321.773 314.971C321.917 315.031 322.047 315.118 322.157 315.229C322.267 315.34 322.353 315.471 322.412 315.615C322.471 315.76 322.5 315.914 322.499 316.07Z" fill="white" stroke="black" stroke-linecap="round" stroke-linejoin="round"/>
<path d="M326.179 318.51C326.836 318.51 327.369 317.977 327.369 317.32C327.369 316.663 326.836 316.13 326.179 316.13C325.522 316.13 324.989 316.663 324.989 317.32C324.989 317.977 325.522 318.51 326.179 318.51Z" fill="white" stroke="black" stroke-linecap="round" stroke-linejoin="round"/>
<path d="M332.239 318.56C332.239 318.795 332.17 319.026 332.039 319.221C331.908 319.417 331.722 319.569 331.505 319.66C331.287 319.75 331.048 319.773 330.817 319.727C330.586 319.681 330.374 319.568 330.208 319.402C330.042 319.235 329.928 319.023 329.882 318.792C329.836 318.561 329.86 318.322 329.95 318.105C330.04 317.887 330.193 317.701 330.388 317.571C330.584 317.44 330.814 317.37 331.049 317.37C331.365 317.37 331.668 317.495 331.891 317.719C332.114 317.942 332.239 318.245 332.239 318.56Z" fill="white" stroke="black" stroke-linecap="round" stroke-linejoin="round"/>
<path d="M337.109 319.81C337.109 320.045 337.04 320.276 336.909 320.471C336.778 320.667 336.592 320.819 336.375 320.91C336.157 321 335.918 321.023 335.687 320.977C335.456 320.931 335.244 320.818 335.078 320.652C334.912 320.485 334.798 320.273 334.752 320.042C334.706 319.811 334.73 319.572 334.82 319.355C334.91 319.137 335.063 318.951 335.258 318.821C335.454 318.69 335.684 318.62 335.92 318.62C336.235 318.62 336.538 318.745 336.761 318.969C336.984 319.192 337.109 319.495 337.109 319.81Z" fill="white" stroke="black" stroke-linecap="round" stroke-linejoin="round"/>
<path d="M337.67 313.81C337.67 314.045 337.6 314.276 337.469 314.471C337.339 314.667 337.153 314.819 336.935 314.91C336.718 315 336.479 315.023 336.248 314.977C336.017 314.931 335.805 314.818 335.639 314.652C335.472 314.485 335.359 314.273 335.313 314.042C335.267 313.811 335.291 313.572 335.381 313.355C335.471 313.137 335.623 312.951 335.819 312.821C336.015 312.69 336.245 312.62 336.48 312.62C336.796 312.62 337.098 312.745 337.322 312.969C337.545 313.192 337.67 313.495 337.67 313.81Z" fill="white" stroke="black" stroke-linecap="round" stroke-linejoin="round"/>
<path d="M337.9 307.13C337.9 307.366 337.83 307.596 337.699 307.792C337.568 307.987 337.382 308.14 337.165 308.23C336.947 308.32 336.708 308.343 336.477 308.298C336.247 308.252 336.034 308.138 335.868 307.972C335.702 307.805 335.588 307.593 335.542 307.363C335.496 307.132 335.52 306.892 335.61 306.675C335.7 306.458 335.853 306.272 336.048 306.141C336.244 306.01 336.474 305.94 336.71 305.94C337.025 305.94 337.328 306.066 337.551 306.289C337.774 306.512 337.9 306.815 337.9 307.13Z" fill="white" stroke="black" stroke-linecap="round" stroke-linejoin="round"/>
<path d="M338.239 300.51C338.239 300.746 338.17 300.976 338.039 301.171C337.908 301.367 337.722 301.52 337.505 301.61C337.287 301.7 337.048 301.723 336.817 301.677C336.586 301.632 336.374 301.518 336.208 301.352C336.042 301.185 335.928 300.973 335.882 300.742C335.836 300.512 335.86 300.272 335.95 300.055C336.04 299.837 336.193 299.652 336.388 299.521C336.584 299.39 336.814 299.32 337.049 299.32C337.365 299.32 337.668 299.446 337.891 299.669C338.114 299.892 338.239 300.195 338.239 300.51Z" fill="white" stroke="black" stroke-linecap="round" stroke-linejoin="round"/>
<path d="M338.119 295.13C338.119 295.366 338.049 295.597 337.918 295.793C337.787 295.989 337.6 296.141 337.382 296.231C337.164 296.321 336.925 296.344 336.693 296.297C336.462 296.25 336.25 296.136 336.084 295.968C335.918 295.801 335.806 295.588 335.761 295.356C335.716 295.125 335.741 294.885 335.833 294.668C335.924 294.451 336.078 294.266 336.275 294.136C336.472 294.007 336.703 293.938 336.939 293.94C337.095 293.94 337.249 293.971 337.393 294.031C337.537 294.091 337.668 294.179 337.777 294.29C337.887 294.4 337.974 294.532 338.032 294.676C338.091 294.82 338.121 294.975 338.119 295.13Z" fill="white" stroke="black" stroke-linecap="round" stroke-linejoin="round"/>
<path d="M334.73 292.75C334.732 292.986 334.663 293.217 334.534 293.414C334.404 293.611 334.219 293.765 334.002 293.857C333.785 293.948 333.545 293.973 333.314 293.929C333.082 293.884 332.869 293.771 332.702 293.605C332.534 293.439 332.42 293.227 332.373 292.996C332.326 292.765 332.349 292.525 332.439 292.307C332.529 292.089 332.681 291.903 332.877 291.772C333.073 291.64 333.304 291.57 333.54 291.57C333.853 291.57 334.155 291.694 334.377 291.915C334.6 292.136 334.727 292.436 334.73 292.75Z" fill="white" stroke="black" stroke-linecap="round" stroke-linejoin="round"/>
<path d="M329.639 292.02C330.296 292.02 330.829 291.487 330.829 290.83C330.829 290.172 330.296 289.64 329.639 289.64C328.982 289.64 328.449 290.172 328.449 290.83C328.449 291.487 328.982 292.02 329.639 292.02Z" fill="white" stroke="black" stroke-linecap="round" stroke-linejoin="round"/>
<path d="M330.489 297.32C330.489 297.555 330.42 297.785 330.289 297.981C330.158 298.177 329.972 298.329 329.755 298.419C329.537 298.509 329.298 298.533 329.067 298.487C328.836 298.441 328.624 298.328 328.458 298.161C328.292 297.995 328.178 297.783 328.132 297.552C328.086 297.321 328.11 297.082 328.2 296.864C328.29 296.647 328.443 296.461 328.638 296.33C328.834 296.2 329.064 296.13 329.299 296.13C329.615 296.13 329.918 296.255 330.141 296.478C330.364 296.702 330.489 297.004 330.489 297.32Z" fill="white" stroke="black" stroke-linecap="round" stroke-linejoin="round"/>
<path d="M330.15 303.81C330.15 304.046 330.08 304.276 329.949 304.471C329.818 304.667 329.632 304.82 329.415 304.91C329.197 305 328.958 305.023 328.727 304.977C328.497 304.931 328.284 304.818 328.118 304.652C327.952 304.485 327.838 304.273 327.792 304.042C327.746 303.811 327.77 303.572 327.86 303.355C327.95 303.137 328.103 302.951 328.298 302.821C328.494 302.69 328.724 302.62 328.96 302.62C329.116 302.619 329.272 302.649 329.416 302.708C329.561 302.767 329.693 302.855 329.804 302.966C329.915 303.077 330.002 303.208 330.062 303.353C330.121 303.498 330.151 303.654 330.15 303.81Z" fill="white" stroke="black" stroke-linecap="round" stroke-linejoin="round"/>
<path d="M329.819 310.29C329.819 310.525 329.75 310.755 329.619 310.951C329.488 311.146 329.302 311.299 329.085 311.389C328.867 311.479 328.628 311.503 328.397 311.457C328.166 311.411 327.954 311.297 327.788 311.131C327.622 310.965 327.508 310.753 327.462 310.522C327.416 310.291 327.44 310.052 327.53 309.834C327.62 309.617 327.773 309.431 327.968 309.3C328.164 309.169 328.394 309.1 328.629 309.1C328.945 309.1 329.248 309.225 329.471 309.448C329.694 309.671 329.819 309.974 329.819 310.29Z" fill="white" stroke="black" stroke-linecap="round" stroke-linejoin="round"/>
<path d="M321.44 309.27C321.442 309.506 321.373 309.737 321.244 309.934C321.114 310.131 320.929 310.285 320.712 310.376C320.495 310.468 320.255 310.493 320.024 310.448C319.792 310.403 319.579 310.291 319.412 310.125C319.244 309.959 319.13 309.747 319.083 309.516C319.036 309.285 319.059 309.045 319.149 308.827C319.239 308.609 319.391 308.422 319.587 308.291C319.783 308.16 320.014 308.09 320.25 308.09C320.563 308.09 320.865 308.214 321.087 308.435C321.31 308.656 321.437 308.956 321.44 309.27Z" fill="white" stroke="black" stroke-linecap="round" stroke-linejoin="round"/>
<path d="M321.67 303.5C321.67 303.735 321.6 303.965 321.469 304.161C321.339 304.356 321.153 304.509 320.935 304.599C320.718 304.689 320.479 304.713 320.248 304.667C320.017 304.621 319.805 304.507 319.639 304.341C319.472 304.175 319.359 303.963 319.313 303.732C319.267 303.501 319.291 303.262 319.381 303.044C319.471 302.827 319.623 302.641 319.819 302.51C320.015 302.379 320.245 302.31 320.48 302.31C320.796 302.31 321.098 302.435 321.322 302.658C321.545 302.881 321.67 303.184 321.67 303.5Z" fill="white" stroke="black" stroke-linecap="round" stroke-linejoin="round"/>
<path d="M311.64 311.88C311.64 312.116 311.57 312.346 311.439 312.542C311.308 312.737 311.123 312.89 310.905 312.98C310.688 313.07 310.448 313.093 310.218 313.048C309.987 313.002 309.775 312.888 309.608 312.722C309.442 312.555 309.329 312.343 309.283 312.113C309.237 311.882 309.26 311.642 309.35 311.425C309.44 311.208 309.593 311.022 309.789 310.891C309.984 310.76 310.214 310.69 310.45 310.69C310.765 310.69 311.068 310.816 311.291 311.039C311.514 311.262 311.64 311.565 311.64 311.88Z" fill="white" stroke="black" stroke-linecap="round" stroke-linejoin="round"/>
<path d="M321.489 321.84C321.489 322.076 321.42 322.306 321.289 322.502C321.158 322.697 320.972 322.85 320.755 322.94C320.537 323.03 320.298 323.053 320.067 323.008C319.836 322.962 319.624 322.848 319.458 322.682C319.292 322.515 319.178 322.303 319.132 322.073C319.086 321.842 319.11 321.602 319.2 321.385C319.29 321.168 319.443 320.982 319.638 320.851C319.834 320.72 320.064 320.65 320.299 320.65C320.615 320.65 320.918 320.776 321.141 320.999C321.364 321.222 321.489 321.525 321.489 321.84Z" fill="white" stroke="black" stroke-linecap="round" stroke-linejoin="round"/>
<path d="M315.369 316.07C315.369 316.306 315.299 316.536 315.168 316.732C315.037 316.928 314.85 317.081 314.632 317.17C314.414 317.26 314.175 317.283 313.943 317.236C313.712 317.19 313.5 317.075 313.334 316.908C313.168 316.74 313.056 316.527 313.011 316.296C312.966 316.064 312.991 315.825 313.083 315.608C313.174 315.39 313.328 315.205 313.525 315.076C313.722 314.946 313.953 314.878 314.189 314.88C314.345 314.88 314.499 314.911 314.643 314.971C314.787 315.031 314.918 315.118 315.027 315.229C315.137 315.34 315.224 315.471 315.282 315.615C315.341 315.76 315.371 315.914 315.369 316.07Z" fill="white" stroke="black" stroke-linecap="round" stroke-linejoin="round"/>
<path d="M316.17 307.92C316.17 308.156 316.1 308.386 315.969 308.582C315.839 308.777 315.653 308.93 315.435 309.02C315.218 309.11 314.979 309.134 314.748 309.088C314.517 309.042 314.305 308.928 314.139 308.762C313.972 308.595 313.859 308.383 313.813 308.153C313.767 307.922 313.791 307.683 313.881 307.465C313.971 307.248 314.123 307.062 314.319 306.931C314.515 306.8 314.745 306.73 314.98 306.73C315.296 306.73 315.598 306.856 315.822 307.079C316.045 307.302 316.17 307.605 316.17 307.92Z" fill="white" stroke="black" stroke-linecap="round" stroke-linejoin="round"/>
<path d="M63.1602 345.83L153.7 305.37L409.43 377.24L356.6 417.23" fill="white"/>
<path d="M63.1602 345.83L153.7 305.37L409.43 377.24L356.6 417.23" stroke="black" stroke-linecap="round" stroke-linejoin="round"/>
<path d="M82.6006 350.92L155.941 318.15L363.081 376.37L320.291 408.75" fill="white"/>
<path d="M82.6006 350.92L155.941 318.15L363.081 376.37L320.291 408.75" stroke="black" stroke-linecap="round" stroke-linejoin="round"/>
<path d="M155.94 318.15V327.3L353.61 383.17L363.08 376.37L159.08 319.33" fill="black"/>
<path d="M82.6006 360.07L155.941 327.3L353.121 382.71" stroke="black" stroke-linecap="round" stroke-linejoin="round"/>
<path d="M462.3 416.78L409.43 377.24L357.18 416.78H462.3Z" fill="black"/>
<path d="M141.26 380.97C160.993 380.97 176.99 373.596 176.99 364.5C176.99 355.404 160.993 348.03 141.26 348.03C121.527 348.03 105.53 355.404 105.53 364.5C105.53 373.596 121.527 380.97 141.26 380.97Z" fill="white"/>
<path opacity="0.5" d="M141.26 380.97C160.993 380.97 176.99 373.596 176.99 364.5C176.99 355.404 160.993 348.03 141.26 348.03C121.527 348.03 105.53 355.404 105.53 364.5C105.53 373.596 121.527 380.97 141.26 380.97Z" fill="black"/>
<path d="M150.001 166.24C150.001 166.24 152.501 172.24 152.001 175.24C151.501 178.24 144.76 180.74 143.76 181.24C142.76 181.74 137.521 179.49 137.521 173.74C137.521 167.99 147.001 161.5 150.001 166.24Z" fill="white" stroke="black" stroke-linecap="round" stroke-linejoin="round"/>
<path d="M147.07 150L161.13 148.37C161.788 148.299 162.454 148.358 163.089 148.545C163.724 148.733 164.315 149.044 164.829 149.462C165.342 149.88 165.767 150.395 166.08 150.979C166.393 151.562 166.587 152.202 166.65 152.86C166.706 153.537 166.624 154.219 166.408 154.863C166.192 155.507 165.847 156.1 165.394 156.606C164.941 157.112 164.389 157.521 163.773 157.807C163.157 158.093 162.489 158.251 161.81 158.27L148.81 158.54L147.07 150Z" fill="black"/>
<path d="M148.73 147C148.73 147 151.73 146 153.73 147C155.73 148 157.48 149.5 157.23 150.5C156.98 151.5 155.48 151.25 153.48 151.5C151.48 151.75 149.33 153.13 148.91 152.07C148.49 151.01 148.73 147 148.73 147Z" fill="white" stroke="black" stroke-linecap="round" stroke-linejoin="round"/>
<path d="M156.11 151.331L170.26 150.971C170.924 150.959 171.584 151.079 172.201 151.325C172.818 151.571 173.38 151.937 173.854 152.403C174.328 152.868 174.704 153.424 174.961 154.036C175.218 154.649 175.35 155.306 175.35 155.971C175.352 156.654 175.213 157.331 174.942 157.958C174.672 158.586 174.276 159.152 173.778 159.62C173.28 160.089 172.692 160.451 172.049 160.683C171.406 160.915 170.723 161.013 170.04 160.971L157.04 160.061L156.11 151.331Z" fill="black"/>
<path d="M150.65 151.33L157.87 151.49C158.334 151.849 158.717 152.301 158.995 152.818C159.272 153.335 159.438 153.905 159.48 154.49C159.493 156.225 159.274 157.953 158.83 159.63H151.13C150.078 158.809 149.297 157.691 148.89 156.42C148.25 154.37 150.65 151.33 150.65 151.33Z" fill="black"/>
<path d="M148 183.94C148 183.94 157.09 185.03 161.74 185.46C166.39 185.89 176.9 179.98 182.8 178.46C189.8 176.63 193.49 180.6 195.32 183.04C197.15 185.48 210 194.32 210 194.32L212.44 201.04L202.06 204.4C202.06 204.4 198.06 199.51 191.98 191.88C185.9 184.25 183.18 180.37 178.27 183.38C173.36 186.39 166.34 191.88 160.84 190.66C155.34 189.44 148 183.94 148 183.94Z" fill="black"/>
<path d="M152 357.271L152.72 357.511L167.5 362.351C167.5 362.351 169.37 363.411 168.83 365.021C168.29 366.631 152.83 368.491 146.66 368.491C140.49 368.491 136.51 367.961 136.51 365.551C136.51 363.141 152 357.271 152 357.271Z" fill="white" stroke="black" stroke-linecap="round" stroke-linejoin="round"/>
<path d="M168.86 365.001C168.96 364.665 168.97 364.31 168.889 363.969C168.808 363.629 168.64 363.315 168.4 363.061C162.575 364.653 156.592 365.606 150.56 365.901C145.938 366.3 141.295 366.394 136.66 366.181C137.35 368.031 141.14 368.471 146.66 368.471C152.83 368.491 168.33 366.621 168.86 365.001Z" fill="white" stroke="black" stroke-linecap="round" stroke-linejoin="round"/>
<path d="M125.05 348.19C125.05 348.19 132.79 344.98 134.13 347.65C135.47 350.32 132.26 354.33 130.39 355.13C128.52 355.93 127.18 356.47 126.12 357.8C125.06 359.13 121.84 362.35 118.37 361.8C114.9 361.25 114.89 356.73 115.16 355.92C115.43 355.11 125.05 348.19 125.05 348.19Z" fill="white" stroke="black" stroke-linecap="round" stroke-linejoin="round"/>
<path d="M133.43 347C133.21 349.17 132.58 351.55 130.99 352.44C127.78 354.22 126.36 353.86 123.51 357.44C122.632 358.474 121.496 359.255 120.217 359.705C118.937 360.155 117.562 360.257 116.23 360L115.91 360.23C116.17 360.671 116.526 361.048 116.952 361.332C117.378 361.616 117.863 361.8 118.37 361.87C121.84 362.41 125.05 359.2 126.12 357.87C127.19 356.54 128.52 356 130.39 355.2C132.26 354.4 135.47 350.39 134.13 347.72C133.983 347.409 133.736 347.156 133.43 347Z" fill="white" stroke="black" stroke-linecap="round" stroke-linejoin="round"/>
<path d="M118.9 236.51C118.9 236.51 116.76 245.33 118.37 249.33C119.98 253.33 120.24 259.75 120.51 261.89C120.78 264.03 117.83 281.89 116.76 291.28C115.69 300.67 111.15 311.05 113.02 317.73C114.89 324.41 113.29 348.73 113.83 352.46C114.37 356.19 115.43 359.46 116.23 359.94C117.03 360.42 119.97 360.74 122.38 359.67C124.79 358.6 126.38 350.59 126.92 348.19C127.46 345.79 129.59 317.73 130.39 313.45C131.19 309.17 133.6 289.94 133.6 289.94C133.6 289.94 135.73 305.71 135.2 309.94C134.67 314.17 132.79 322.5 133.6 329.94C134.41 337.38 135.73 365.2 135.73 365.2C136.886 365.866 138.153 366.32 139.47 366.54C140.81 366.54 150.96 359.59 152.03 357.19C153.1 354.79 152.03 350.51 152.03 350.51C152.03 350.51 153.9 308.03 155.77 293.6C157.64 279.17 153.37 239.9 153.37 239.9C153.37 239.9 132.26 244.79 118.9 236.51Z" fill="black"/>
<path d="M133.33 286.74L129.86 267.24L123.98 257.08" stroke="white" stroke-linecap="round" stroke-linejoin="round"/>
<path d="M151 145C151.629 146.714 152.052 148.496 152.26 150.31C152.26 152.07 151.26 153.31 151.5 154.6C151.74 155.89 153.77 157.88 152.01 161.16C150.25 164.44 151.75 169.24 149.23 170.25C147.531 170.876 145.74 171.214 143.93 171.25L143.17 176.8L130.55 172.8V162.68C130.55 162.68 135.85 162.93 137.87 160.4C139.89 157.87 139.38 152.58 140.39 149.04C141.4 145.5 145.44 143.24 147.21 143.24C148.98 143.24 151 145 151 145Z" fill="white" stroke="black" stroke-linecap="round" stroke-linejoin="round"/>
<path d="M154.62 140.43C154.35 141.394 153.891 142.295 153.27 143.079C152.648 143.864 151.877 144.517 151 145C148.47 146.52 145.19 146 145.19 147.28C145.19 148.56 147.46 148.28 146.7 151.57C146.219 153.584 145.179 155.421 143.7 156.87C143.7 156.87 145.98 159.65 143.7 160.15C141.42 160.65 140.93 163.94 138.15 164.7C135.37 165.46 132.85 167.47 130.58 165.45C128.31 163.43 120.98 155.1 119.97 149.55C118.96 144 124.52 138.19 124.52 138.19C124.52 138.19 124.27 134.91 126.29 133.64C128.31 132.37 133.71 131.95 134.22 129.93C136.34 121.53 150.91 129.44 153.47 133.88C154.657 135.844 155.067 138.18 154.62 140.43Z" fill="black"/>
<path d="M150 138.58C150.024 139.668 149.759 140.743 149.232 141.695C148.705 142.648 147.935 143.443 147 144C143.76 145.8 136.55 144.36 134 147.78C131.45 151.2 133.28 156.6 129.5 157.5" stroke="white" stroke-width="0.5" stroke-linecap="round" stroke-linejoin="round"/>
<path d="M144.46 149.92C144.46 149.92 141.03 151 139.59 153.16C138.15 155.32 137.43 160.36 133.11 161.62" stroke="white" stroke-width="0.5" stroke-linecap="round" stroke-linejoin="round"/>
<path d="M143.93 161.411C143.93 161.411 141.93 155.351 139.13 156.871C136.33 158.391 138.63 162.931 140.13 164.191C141.63 165.451 143.41 163.691 143.41 163.691" fill="white"/>
<path d="M143.93 161.411C143.93 161.411 141.93 155.351 139.13 156.871C136.33 158.391 138.63 162.931 140.13 164.191C141.63 165.451 143.41 163.691 143.41 163.691" stroke="black" stroke-linecap="round" stroke-linejoin="round"/>
<path d="M124.49 173.781C121.36 176.033 118.731 178.91 116.77 182.231C113.77 187.531 117.67 212.161 118.68 218.721C119.69 225.281 117.42 236.141 119.19 239.171C120.96 242.201 126.76 244.721 132.31 245.231C137.86 245.741 146.45 244.981 149.73 243.971C153.01 242.961 154.78 240.181 154.78 238.921C154.78 237.661 154.53 222.261 154.53 218.971C154.53 215.681 154.28 192.211 152.26 187.671C150.422 183.731 147.307 180.528 143.42 178.581C140.39 177.071 129 171.511 124.49 173.781Z" fill="white" stroke="black" stroke-linecap="round" stroke-linejoin="round"/>
<path d="M146.881 203.79C146.881 203.79 144.181 206.24 136.561 207.23" stroke="black" stroke-miterlimit="10"/>
<path d="M141.441 214.311C140.715 215.07 139.903 215.742 139.021 216.311" stroke="black" stroke-miterlimit="10"/>
<path d="M147.861 203.79C146.686 206.734 145.158 209.525 143.311 212.1" stroke="black" stroke-miterlimit="10"/>
<path d="M146.63 231.05C142.112 236.926 135.525 240.859 128.21 242.05C128.21 242.05 139.02 242.3 146.14 234.68" stroke="black" stroke-linecap="round" stroke-linejoin="round"/>
<path d="M126.761 169.49C126.761 169.49 134.081 170 138.881 172.77C143.681 175.54 146.961 178.33 148.721 178.83C150.481 179.33 153.771 179.59 152.721 179.83C151.671 180.07 150.451 180.34 147.931 181.09C145.411 181.84 141.871 180.34 136.571 177.81C131.271 175.28 125.461 173.81 124.451 173.81C123.441 173.81 124.741 169.49 126.761 169.49Z" fill="white" stroke="black" stroke-linecap="round" stroke-linejoin="round"/>
<path d="M169.68 194.74C169.68 194.74 178.07 200.35 179.3 204.52" stroke="black" stroke-linecap="round" stroke-linejoin="round"/>
<path d="M169.17 185.651L160.34 165.001C159.224 163.748 157.95 162.646 156.55 161.721C156.322 161.615 156.122 161.457 155.966 161.26C155.81 161.062 155.703 160.831 155.654 160.585C155.604 160.338 155.613 160.084 155.68 159.842C155.747 159.599 155.87 159.376 156.04 159.191C156.04 159.191 158.57 159.701 158.57 158.691C158.539 157.013 158.369 155.34 158.06 153.691C157.81 152.931 157.06 152.421 157.06 151.691C157.06 150.961 158.83 149.921 160.85 150.431C162.87 150.941 162.53 150.641 162.53 150.641C165.42 150.001 165.98 150.641 167.42 153.201C168.32 155.179 168.751 157.338 168.68 159.511C168.68 160.781 167.16 164.561 167.16 164.561L178.02 185.561L169.17 185.651Z" fill="white" stroke="black" stroke-linecap="round" stroke-linejoin="round"/>
<path d="M170.18 191.46C170.18 191.46 166.9 191.46 167.18 190.7C167.46 189.94 166.43 187.16 166.43 185.9C166.43 184.64 168.7 183.12 171.43 182.62C174.16 182.12 177.24 183.12 178.25 183.38C179.26 183.64 179.51 185.65 180.25 186.91C180.99 188.17 181.51 189.69 181.01 190.7C180.525 191.408 179.823 191.938 179.01 192.21L170.18 191.46Z" fill="white" stroke="black" stroke-linecap="round" stroke-linejoin="round"/>
<path d="M133.83 187.67C133.83 187.67 135.6 181.61 139.13 180.35C142.66 179.09 146.96 180.85 151.25 183.63C155.54 186.41 169.68 194.74 169.68 194.74L168.16 188.68C168.16 188.68 177.25 185.9 179.52 190.19C181.79 194.48 183.31 210.14 183.31 212.19C183.31 214.24 178.01 215.97 174.73 215.72C171.45 215.47 142.41 201.08 142.41 201.08" fill="white"/>
<path d="M133.83 187.67C133.83 187.67 135.6 181.61 139.13 180.35C142.66 179.09 146.96 180.85 151.25 183.63C155.54 186.41 169.68 194.74 169.68 194.74L168.16 188.68C168.16 188.68 177.25 185.9 179.52 190.19C181.79 194.48 183.31 210.14 183.31 212.19C183.31 214.24 178.01 215.97 174.73 215.72C171.45 215.47 142.41 201.08 142.41 201.08" stroke="black" stroke-linecap="round" stroke-linejoin="round"/>
<path d="M173.4 197.16C176.008 197.933 178.322 199.473 180.04 201.58" stroke="black" stroke-linecap="round" stroke-linejoin="round"/>
</svg>
