<svg width="746" height="133" viewBox="0 0 746 133" fill="none" xmlns="http://www.w3.org/2000/svg">
<path d="M9.728 120.13C8.14933 120.13 6.752 119.821 5.536 119.202C4.34133 118.562 3.392 117.677 2.688 116.546C2.00533 115.394 1.62133 114.04 1.536 112.482L4.896 111.778L5.248 111.842C5.248 112.76 5.41867 113.581 5.76 114.306C6.10133 115.032 6.60267 115.597 7.264 116.002C7.92533 116.408 8.736 116.61 9.696 116.61C10.4853 116.61 11.1787 116.472 11.776 116.194C12.3733 115.896 12.8427 115.49 13.184 114.978C13.5253 114.445 13.696 113.816 13.696 113.09C13.696 111.96 13.3013 111.096 12.512 110.498C11.7227 109.88 10.6987 109.57 9.44 109.57H7.776V106.338H9.504C10.5707 106.338 11.4347 106.072 12.096 105.538C12.7787 105.005 13.12 104.258 13.12 103.298C13.12 102.701 12.9707 102.168 12.672 101.698C12.3733 101.229 11.9573 100.866 11.424 100.61C10.912 100.354 10.3147 100.226 9.632 100.226C8.864 100.226 8.18133 100.397 7.584 100.738C7.008 101.08 6.53867 101.56 6.176 102.178C5.83467 102.776 5.632 103.49 5.568 104.322L5.216 104.386L1.984 103.714C2.06933 102.434 2.432 101.272 3.072 100.226C3.73333 99.1811 4.61867 98.3491 5.728 97.7304C6.85867 97.0904 8.18133 96.7704 9.696 96.7704C11.0613 96.7704 12.2773 97.0371 13.344 97.5704C14.432 98.1037 15.2853 98.8291 15.904 99.7464C16.5227 100.642 16.832 101.688 16.832 102.882C16.832 104.354 16.3733 105.56 15.456 106.498C14.5387 107.437 13.344 107.992 11.872 108.162V107.49C13.0027 107.49 13.9733 107.746 14.784 108.258C15.616 108.77 16.256 109.474 16.704 110.37C17.1733 111.245 17.408 112.226 17.408 113.314C17.408 114.616 17.088 115.789 16.448 116.834C15.808 117.858 14.912 118.669 13.76 119.266C12.608 119.842 11.264 120.13 9.728 120.13ZM19.7928 119.65V116.418L27.8568 108.93C28.5608 108.248 29.1154 107.629 29.5208 107.074C29.9261 106.52 30.2248 105.986 30.4168 105.474C30.6088 104.962 30.7048 104.45 30.7048 103.938C30.7048 103.256 30.5448 102.648 30.2248 102.114C29.9261 101.56 29.4994 101.122 28.9448 100.802C28.3901 100.461 27.7288 100.29 26.9608 100.29C26.1714 100.29 25.4674 100.482 24.8488 100.866C24.2514 101.25 23.7821 101.816 23.4408 102.562C23.0994 103.288 22.9288 104.184 22.9288 105.25L22.5768 105.314L19.3448 104.642C19.3448 103.085 19.6861 101.72 20.3688 100.546C21.0728 99.3517 22.0008 98.4237 23.1528 97.7624C24.3261 97.1011 25.6274 96.7704 27.0568 96.7704C28.4861 96.7704 29.7554 97.0904 30.8648 97.7304C31.9741 98.3704 32.8381 99.2451 33.4568 100.354C34.0968 101.442 34.4167 102.669 34.4167 104.034C34.4167 104.866 34.2781 105.666 34.0008 106.434C33.7234 107.202 33.2754 108.002 32.6568 108.834C32.0594 109.645 31.2381 110.53 30.1928 111.49L23.0888 118.21L22.3208 116.13H35.1208V119.65H19.7928ZM47.1612 119.65L43.5548 108.63V108.45H45.2348L48.2364 117.858L48.7292 119.65H47.1612ZM47.1612 119.65L47.7884 117.858L50.9915 108.45H52.5148V108.63L48.7292 119.65H47.1612ZM54.7772 119.65L50.9915 108.63V108.45H52.5148L55.718 117.858L56.3452 119.65H54.7772ZM54.7772 119.65L55.27 117.858L58.2491 108.45H59.9516V108.63L56.3452 119.65H54.7772ZM61.8492 119.65V108.45H63.5293V119.65H61.8492ZM62.7005 106.255C62.357 106.255 62.0658 106.136 61.8269 105.897C61.5879 105.658 61.4685 105.367 61.4685 105.023C61.4685 104.68 61.5879 104.389 61.8269 104.15C62.0658 103.911 62.357 103.791 62.7005 103.791C63.0439 103.791 63.3351 103.911 63.574 104.15C63.813 104.389 63.9324 104.68 63.9324 105.023C63.9324 105.367 63.813 105.658 63.574 105.897C63.3351 106.136 63.0439 106.255 62.7005 106.255ZM66.9925 119.65V103.522L68.6053 103.321L68.6725 103.5V119.65H66.9925ZM72.0238 119.65V103.522L73.6365 103.321L73.7038 103.5V119.65H72.0238ZM91.5193 108.45V119.65H89.8841V116.402L90.3769 116.828C90.1827 117.455 89.8617 118 89.4137 118.463C88.9806 118.926 88.4579 119.285 87.8457 119.538C87.2334 119.792 86.5838 119.919 85.8969 119.919C85.0905 119.919 84.3737 119.747 83.7465 119.404C83.1342 119.061 82.6489 118.553 82.2905 117.881C81.9321 117.209 81.7529 116.373 81.7529 115.372V108.45H83.4329V114.991C83.4329 115.827 83.5598 116.485 83.8137 116.962C84.0675 117.44 84.411 117.776 84.8441 117.97C85.2771 118.165 85.755 118.262 86.2777 118.262C86.9049 118.262 87.4873 118.112 88.0249 117.814C88.5625 117.515 88.9955 117.082 89.3241 116.514C89.6675 115.947 89.8393 115.275 89.8393 114.498V108.45H91.5193ZM98.2458 119.919C97.0959 119.919 96.1252 119.643 95.3337 119.09C94.5423 118.523 94.0196 117.731 93.7658 116.716L95.3114 116.335L95.5578 116.38C95.722 116.977 96.0655 117.448 96.5882 117.791C97.1108 118.12 97.7231 118.284 98.425 118.284C99.1268 118.284 99.7242 118.127 100.217 117.814C100.725 117.485 100.979 117.059 100.979 116.537C100.979 116.104 100.829 115.76 100.531 115.506C100.247 115.238 99.8138 115.036 99.2314 114.902L97.1706 114.431C96.1252 114.192 95.3562 113.811 94.8634 113.289C94.3855 112.751 94.1466 112.117 94.1466 111.385C94.1466 110.758 94.3183 110.205 94.6617 109.727C95.0052 109.249 95.4756 108.876 96.0729 108.607C96.6852 108.323 97.3796 108.182 98.1562 108.182C99.2911 108.182 100.247 108.465 101.023 109.033C101.8 109.6 102.315 110.399 102.569 111.43L101.001 111.766L100.755 111.721C100.605 111.109 100.277 110.638 99.769 110.31C99.2762 109.981 98.7236 109.817 98.1114 109.817C97.4692 109.817 96.9316 109.959 96.4986 110.242C96.0804 110.526 95.8714 110.885 95.8714 111.318C95.8714 111.691 96.0058 112.005 96.2746 112.258C96.5583 112.497 97.0063 112.684 97.6186 112.818L99.7018 113.289C100.732 113.528 101.486 113.909 101.964 114.431C102.457 114.954 102.703 115.618 102.703 116.425C102.703 117.142 102.509 117.761 102.121 118.284C101.733 118.807 101.203 119.21 100.531 119.494C99.8735 119.777 99.1119 119.919 98.2458 119.919ZM109.802 119.919C108.741 119.919 107.801 119.673 106.979 119.18C106.158 118.687 105.516 118 105.053 117.119C104.59 116.238 104.359 115.215 104.359 114.05C104.359 112.886 104.583 111.863 105.031 110.982C105.493 110.101 106.128 109.414 106.935 108.921C107.756 108.428 108.697 108.182 109.757 108.182C110.802 108.182 111.713 108.435 112.49 108.943C113.281 109.436 113.901 110.138 114.349 111.049C114.797 111.945 115.021 112.99 115.021 114.185V114.386L114.685 114.7H105.344V113.065H114.035L113.296 113.378C113.236 112.632 113.042 111.997 112.714 111.474C112.385 110.937 111.967 110.526 111.459 110.242C110.952 109.959 110.384 109.817 109.757 109.817C109.07 109.817 108.443 109.989 107.875 110.332C107.308 110.661 106.86 111.131 106.531 111.743C106.203 112.355 106.039 113.065 106.039 113.871V114.162C106.039 114.969 106.195 115.686 106.509 116.313C106.837 116.925 107.285 117.41 107.853 117.769C108.42 118.112 109.07 118.284 109.802 118.284C110.533 118.284 111.161 118.112 111.683 117.769C112.206 117.425 112.617 116.955 112.915 116.358H113.162L114.573 116.985C114.155 117.881 113.528 118.598 112.691 119.135C111.87 119.658 110.907 119.919 109.802 119.919Z" fill="#262626"/>
<path d="M345.686 119.65V98.4984L347.51 100.386L341.494 105.154H341.238V100.834L345.782 97.2504H349.366V119.65H345.686ZM353.573 119.65V116.418L361.637 108.93C362.341 108.248 362.896 107.629 363.301 107.074C363.706 106.52 364.005 105.986 364.197 105.474C364.389 104.962 364.485 104.45 364.485 103.938C364.485 103.256 364.325 102.648 364.005 102.114C363.706 101.56 363.28 101.122 362.725 100.802C362.17 100.461 361.509 100.29 360.741 100.29C359.952 100.29 359.248 100.482 358.629 100.866C358.032 101.25 357.562 101.816 357.221 102.562C356.88 103.288 356.709 104.184 356.709 105.25L356.357 105.314L353.125 104.642C353.125 103.085 353.466 101.72 354.149 100.546C354.853 99.3517 355.781 98.4237 356.933 97.7624C358.106 97.1011 359.408 96.7704 360.837 96.7704C362.266 96.7704 363.536 97.0904 364.645 97.7304C365.754 98.3704 366.618 99.2451 367.237 100.354C367.877 101.442 368.197 102.669 368.197 104.034C368.197 104.866 368.058 105.666 367.781 106.434C367.504 107.202 367.056 108.002 366.437 108.834C365.84 109.645 365.018 110.53 363.973 111.49L356.869 118.21L356.101 116.13H368.901V119.65H353.573ZM379.335 119.65V103.522L380.948 103.321L381.015 103.5V119.65H379.335ZM384.255 119.65V108.45H385.935V119.65H384.255ZM385.106 106.255C384.762 106.255 384.471 106.136 384.232 105.897C383.993 105.658 383.874 105.367 383.874 105.023C383.874 104.68 383.993 104.389 384.232 104.15C384.471 103.911 384.762 103.791 385.106 103.791C385.449 103.791 385.74 103.911 385.979 104.15C386.218 104.389 386.338 104.68 386.338 105.023C386.338 105.367 386.218 105.658 385.979 105.897C385.74 106.136 385.449 106.255 385.106 106.255ZM389.067 119.65V108.45H390.702V111.698L390.209 111.273C390.404 110.646 390.725 110.101 391.173 109.638C391.621 109.175 392.143 108.816 392.741 108.562C393.338 108.309 393.95 108.182 394.577 108.182C395.563 108.182 396.407 108.465 397.109 109.033C397.825 109.585 398.288 110.392 398.497 111.452H397.736C397.915 110.795 398.229 110.227 398.677 109.75C399.125 109.257 399.67 108.876 400.312 108.607C400.969 108.323 401.678 108.182 402.44 108.182C403.216 108.182 403.903 108.353 404.501 108.697C405.113 109.04 405.591 109.548 405.934 110.22C406.293 110.892 406.472 111.728 406.472 112.729V119.65H404.792V113.11C404.792 112.258 404.665 111.601 404.411 111.138C404.157 110.661 403.821 110.325 403.403 110.13C403 109.936 402.552 109.839 402.059 109.839C401.521 109.839 400.984 109.981 400.446 110.265C399.924 110.549 399.483 110.974 399.125 111.542C398.781 112.094 398.609 112.781 398.609 113.602V119.65H396.929V113.11C396.929 112.258 396.802 111.601 396.549 111.138C396.295 110.661 395.959 110.325 395.541 110.13C395.137 109.936 394.689 109.839 394.197 109.839C393.659 109.839 393.121 109.989 392.584 110.287C392.061 110.571 391.621 110.997 391.262 111.564C390.919 112.117 390.747 112.796 390.747 113.602V119.65H389.067ZM409.498 119.65V108.45H411.178V119.65H409.498ZM410.349 106.255C410.006 106.255 409.715 106.136 409.476 105.897C409.237 105.658 409.117 105.367 409.117 105.023C409.117 104.68 409.237 104.389 409.476 104.15C409.715 103.911 410.006 103.791 410.349 103.791C410.693 103.791 410.984 103.911 411.223 104.15C411.462 104.389 411.581 104.68 411.581 105.023C411.581 105.367 411.462 105.658 411.223 105.897C410.984 106.136 410.693 106.255 410.349 106.255ZM417.622 119.65C416.697 119.65 415.935 119.352 415.338 118.754C414.74 118.157 414.442 117.351 414.442 116.335V105.404H416.122V116.223C416.122 116.88 416.256 117.343 416.525 117.612C416.809 117.881 417.272 118.015 417.914 118.015H419.302L419.414 118.262V119.65H417.622ZM412.515 110.086V108.45H419.414V110.086H412.515ZM426.323 119.919C425.262 119.919 424.322 119.673 423.5 119.18C422.679 118.687 422.037 118 421.574 117.119C421.111 116.238 420.879 115.215 420.879 114.05C420.879 112.886 421.103 111.863 421.551 110.982C422.014 110.101 422.649 109.414 423.455 108.921C424.277 108.428 425.218 108.182 426.278 108.182C427.323 108.182 428.234 108.435 429.011 108.943C429.802 109.436 430.422 110.138 430.87 111.049C431.318 111.945 431.542 112.99 431.542 114.185V114.386L431.206 114.7H421.865V113.065H430.556L429.817 113.378C429.757 112.632 429.563 111.997 429.235 111.474C428.906 110.937 428.488 110.526 427.98 110.242C427.472 109.959 426.905 109.817 426.278 109.817C425.591 109.817 424.964 109.989 424.396 110.332C423.829 110.661 423.381 111.131 423.052 111.743C422.724 112.355 422.559 113.065 422.559 113.871V114.162C422.559 114.969 422.716 115.686 423.03 116.313C423.358 116.925 423.806 117.41 424.374 117.769C424.941 118.112 425.591 118.284 426.323 118.284C427.054 118.284 427.682 118.112 428.204 117.769C428.727 117.425 429.138 116.955 429.436 116.358H429.683L431.094 116.985C430.676 117.881 430.048 118.598 429.212 119.135C428.391 119.658 427.428 119.919 426.323 119.919ZM438.613 119.919C437.627 119.919 436.731 119.665 435.925 119.158C435.133 118.65 434.499 117.955 434.021 117.074C433.558 116.193 433.326 115.185 433.326 114.05C433.326 112.915 433.558 111.907 434.021 111.026C434.499 110.145 435.133 109.451 435.925 108.943C436.731 108.435 437.627 108.182 438.613 108.182C439.374 108.182 440.076 108.338 440.718 108.652C441.36 108.951 441.913 109.376 442.376 109.929C442.839 110.466 443.182 111.109 443.406 111.855V116.246C443.182 116.977 442.839 117.619 442.376 118.172C441.913 118.725 441.36 119.158 440.718 119.471C440.076 119.77 439.374 119.919 438.613 119.919ZM438.68 118.284C439.427 118.284 440.084 118.105 440.651 117.746C441.233 117.388 441.689 116.895 442.017 116.268C442.361 115.626 442.533 114.887 442.533 114.05C442.533 113.214 442.361 112.482 442.017 111.855C441.689 111.213 441.233 110.713 440.651 110.354C440.084 109.996 439.427 109.817 438.68 109.817C437.978 109.817 437.343 109.996 436.776 110.354C436.223 110.713 435.79 111.213 435.477 111.855C435.163 112.482 435.006 113.214 435.006 114.05C435.006 114.887 435.163 115.626 435.477 116.268C435.79 116.895 436.223 117.388 436.776 117.746C437.343 118.105 437.978 118.284 438.68 118.284ZM442.577 119.65V115.462L442.846 114.05L442.533 112.639V103.522L444.145 103.321L444.213 103.5V119.65H442.577ZM462.028 108.45V119.65H460.392V116.402L460.885 116.828C460.691 117.455 460.37 118 459.922 118.463C459.489 118.926 458.966 119.285 458.354 119.538C457.742 119.792 457.092 119.919 456.405 119.919C455.599 119.919 454.882 119.747 454.255 119.404C453.643 119.061 453.157 118.553 452.799 117.881C452.44 117.209 452.261 116.373 452.261 115.372V108.45H453.941V114.991C453.941 115.827 454.068 116.485 454.322 116.962C454.576 117.44 454.919 117.776 455.352 117.97C455.786 118.165 456.263 118.262 456.786 118.262C457.413 118.262 457.996 118.112 458.533 117.814C459.071 117.515 459.504 117.082 459.832 116.514C460.176 115.947 460.348 115.275 460.348 114.498V108.45H462.028ZM468.754 119.919C467.604 119.919 466.634 119.643 465.842 119.09C465.051 118.523 464.528 117.731 464.274 116.716L465.82 116.335L466.066 116.38C466.23 116.977 466.574 117.448 467.097 117.791C467.619 118.12 468.231 118.284 468.933 118.284C469.635 118.284 470.233 118.127 470.725 117.814C471.233 117.485 471.487 117.059 471.487 116.537C471.487 116.104 471.338 115.76 471.039 115.506C470.755 115.238 470.322 115.036 469.74 114.902L467.679 114.431C466.634 114.192 465.865 113.811 465.372 113.289C464.894 112.751 464.655 112.117 464.655 111.385C464.655 110.758 464.827 110.205 465.17 109.727C465.514 109.249 465.984 108.876 466.581 108.607C467.194 108.323 467.888 108.182 468.665 108.182C469.799 108.182 470.755 108.465 471.532 109.033C472.308 109.6 472.823 110.399 473.077 111.43L471.509 111.766L471.263 111.721C471.114 111.109 470.785 110.638 470.277 110.31C469.785 109.981 469.232 109.817 468.62 109.817C467.978 109.817 467.44 109.959 467.007 110.242C466.589 110.526 466.38 110.885 466.38 111.318C466.38 111.691 466.514 112.005 466.783 112.258C467.067 112.497 467.515 112.684 468.127 112.818L470.21 113.289C471.241 113.528 471.995 113.909 472.473 114.431C472.965 114.954 473.212 115.618 473.212 116.425C473.212 117.142 473.018 117.761 472.629 118.284C472.241 118.807 471.711 119.21 471.039 119.494C470.382 119.777 469.62 119.919 468.754 119.919ZM480.31 119.919C479.25 119.919 478.309 119.673 477.488 119.18C476.666 118.687 476.024 118 475.561 117.119C475.098 116.238 474.867 115.215 474.867 114.05C474.867 112.886 475.091 111.863 475.539 110.982C476.002 110.101 476.637 109.414 477.443 108.921C478.264 108.428 479.205 108.182 480.265 108.182C481.311 108.182 482.222 108.435 482.998 108.943C483.79 109.436 484.409 110.138 484.857 111.049C485.305 111.945 485.529 112.99 485.529 114.185V114.386L485.193 114.7H475.853V113.065H484.544L483.805 113.378C483.745 112.632 483.551 111.997 483.222 111.474C482.894 110.937 482.475 110.526 481.968 110.242C481.46 109.959 480.893 109.817 480.265 109.817C479.578 109.817 478.951 109.989 478.384 110.332C477.816 110.661 477.368 111.131 477.04 111.743C476.711 112.355 476.547 113.065 476.547 113.871V114.162C476.547 114.969 476.704 115.686 477.017 116.313C477.346 116.925 477.794 117.41 478.361 117.769C478.929 118.112 479.578 118.284 480.31 118.284C481.042 118.284 481.669 118.112 482.192 117.769C482.714 117.425 483.125 116.955 483.424 116.358H483.67L485.081 116.985C484.663 117.881 484.036 118.598 483.2 119.135C482.378 119.658 481.415 119.919 480.31 119.919Z" fill="#262626"/>
<path fill-rule="evenodd" clip-rule="evenodd" d="M2.81299 0.228516H70.3252V80.3992H2.81299V0.228516ZM272.862 0.228619H340.374V80.3994H272.862H205.35H137.837H70.3252V0.228619H137.837H205.35H272.862Z" fill="black"/>
<path fill-rule="evenodd" clip-rule="evenodd" d="M407.886 0.228516H340.374V80.3992H407.886L407.886 80.3994H475.398H542.911H610.423V0.228619H542.911H475.398H407.886L407.886 0.228516Z" fill="#454545" fill-opacity="0.71"/>
<path fill-rule="evenodd" clip-rule="evenodd" d="M677.935 0.228516H610.423V80.3992H677.935V80.3994H745.447V0.228619H677.935V0.228516Z" fill="#676767" fill-opacity="0.35"/>
<path d="M612.247 119.65V116.418L620.311 108.93C621.015 108.248 621.57 107.629 621.975 107.074C622.38 106.52 622.679 105.986 622.871 105.474C623.063 104.962 623.159 104.45 623.159 103.938C623.159 103.256 622.999 102.648 622.679 102.114C622.38 101.56 621.954 101.122 621.399 100.802C620.844 100.461 620.183 100.29 619.415 100.29C618.626 100.29 617.922 100.482 617.303 100.866C616.706 101.25 616.236 101.816 615.895 102.562C615.554 103.288 615.383 104.184 615.383 105.25L615.031 105.314L611.799 104.642C611.799 103.085 612.14 101.72 612.823 100.546C613.527 99.3517 614.455 98.4237 615.607 97.7624C616.78 97.1011 618.082 96.7704 619.511 96.7704C620.94 96.7704 622.21 97.0904 623.319 97.7304C624.428 98.3704 625.292 99.2451 625.911 100.354C626.551 101.442 626.871 102.669 626.871 104.034C626.871 104.866 626.732 105.666 626.455 106.434C626.178 107.202 625.73 108.002 625.111 108.834C624.514 109.645 623.692 110.53 622.647 111.49L615.543 118.21L614.775 116.13H627.575V119.65H612.247ZM639.615 119.65L636.009 108.63V108.45H637.689L640.69 117.858L641.183 119.65H639.615ZM639.615 119.65L640.242 117.858L643.446 108.45H644.969V108.63L641.183 119.65H639.615ZM647.231 119.65L643.446 108.63V108.45H644.969L648.172 117.858L648.799 119.65H647.231ZM647.231 119.65L647.724 117.858L650.703 108.45H652.406V108.63L648.799 119.65H647.231ZM658.704 119.919C657.629 119.919 656.673 119.673 655.837 119.18C655.016 118.687 654.366 118 653.888 117.119C653.425 116.238 653.194 115.215 653.194 114.05C653.194 112.886 653.425 111.863 653.888 110.982C654.366 110.101 655.016 109.414 655.837 108.921C656.673 108.428 657.629 108.182 658.704 108.182C659.794 108.182 660.75 108.428 661.571 108.921C662.393 109.414 663.035 110.101 663.498 110.982C663.976 111.863 664.215 112.886 664.215 114.05C664.215 115.215 663.976 116.238 663.498 117.119C663.035 118 662.393 118.687 661.571 119.18C660.75 119.673 659.794 119.919 658.704 119.919ZM658.704 118.284C659.451 118.284 660.108 118.112 660.675 117.769C661.258 117.41 661.713 116.918 662.042 116.29C662.37 115.648 662.535 114.902 662.535 114.05C662.535 113.184 662.37 112.438 662.042 111.81C661.713 111.183 661.258 110.698 660.675 110.354C660.108 109.996 659.451 109.817 658.704 109.817C657.958 109.817 657.293 109.996 656.711 110.354C656.143 110.698 655.695 111.183 655.367 111.81C655.038 112.438 654.874 113.184 654.874 114.05C654.874 114.902 655.038 115.648 655.367 116.29C655.695 116.918 656.143 117.41 656.711 117.769C657.293 118.112 657.958 118.284 658.704 118.284ZM666.685 119.65V108.45H668.32V111.698L667.827 111.273C668.021 110.646 668.342 110.101 668.79 109.638C669.238 109.175 669.761 108.816 670.358 108.562C670.97 108.309 671.62 108.182 672.307 108.182C673.113 108.182 673.83 108.353 674.457 108.697C675.085 109.04 675.57 109.548 675.913 110.22C676.272 110.892 676.451 111.728 676.451 112.729V119.65H674.771V113.11C674.771 112.258 674.644 111.601 674.39 111.138C674.136 110.661 673.793 110.325 673.36 110.13C672.942 109.936 672.464 109.839 671.926 109.839C671.314 109.839 670.732 109.989 670.179 110.287C669.641 110.586 669.201 111.019 668.857 111.586C668.529 112.139 668.365 112.811 668.365 113.602V119.65H666.685ZM679.101 109.324V108.002C679.579 107.913 679.952 107.711 680.221 107.398C680.489 107.069 680.624 106.696 680.624 106.278C680.624 106.024 680.587 105.785 680.512 105.561L681.341 105.09C681.371 105.18 681.385 105.27 681.385 105.359C681.4 105.434 681.408 105.516 681.408 105.606C681.408 105.874 681.341 106.076 681.206 106.21C681.072 106.33 680.923 106.412 680.758 106.457C680.594 106.502 680.475 106.524 680.4 106.524C680.012 106.524 679.683 106.397 679.414 106.143C679.16 105.889 679.033 105.568 679.033 105.18C679.033 104.792 679.16 104.471 679.414 104.217C679.683 103.948 680.012 103.814 680.4 103.814C680.728 103.814 681.005 103.918 681.229 104.127C681.468 104.321 681.647 104.575 681.766 104.889C681.901 105.202 681.968 105.546 681.968 105.919C681.968 106.233 681.916 106.576 681.811 106.95C681.721 107.308 681.565 107.659 681.341 108.002C681.117 108.331 680.818 108.615 680.445 108.854C680.086 109.093 679.638 109.249 679.101 109.324ZM688.765 119.65C687.839 119.65 687.078 119.352 686.48 118.754C685.883 118.157 685.584 117.351 685.584 116.335V105.404H687.264V116.223C687.264 116.88 687.399 117.343 687.667 117.612C687.951 117.881 688.414 118.015 689.056 118.015H690.445L690.557 118.262V119.65H688.765ZM683.658 110.086V108.45H690.557V110.086H683.658ZM707.708 108.45V119.65H706.073V116.402L706.565 116.828C706.371 117.455 706.05 118 705.602 118.463C705.169 118.926 704.646 119.285 704.034 119.538C703.422 119.792 702.772 119.919 702.085 119.919C701.279 119.919 700.562 119.747 699.935 119.404C699.323 119.061 698.837 118.553 698.479 117.881C698.121 117.209 697.941 116.373 697.941 115.372V108.45H699.621V114.991C699.621 115.827 699.748 116.485 700.002 116.962C700.256 117.44 700.599 117.776 701.033 117.97C701.466 118.165 701.943 118.262 702.466 118.262C703.093 118.262 703.676 118.112 704.213 117.814C704.751 117.515 705.184 117.082 705.513 116.514C705.856 115.947 706.028 115.275 706.028 114.498V108.45H707.708ZM714.434 119.919C713.284 119.919 712.314 119.643 711.522 119.09C710.731 118.523 710.208 117.731 709.954 116.716L711.5 116.335L711.746 116.38C711.91 116.977 712.254 117.448 712.777 117.791C713.299 118.12 713.912 118.284 714.613 118.284C715.315 118.284 715.913 118.127 716.405 117.814C716.913 117.485 717.167 117.059 717.167 116.537C717.167 116.104 717.018 115.76 716.719 115.506C716.435 115.238 716.002 115.036 715.42 114.902L713.359 114.431C712.314 114.192 711.545 113.811 711.052 113.289C710.574 112.751 710.335 112.117 710.335 111.385C710.335 110.758 710.507 110.205 710.85 109.727C711.194 109.249 711.664 108.876 712.261 108.607C712.874 108.323 713.568 108.182 714.345 108.182C715.48 108.182 716.435 108.465 717.212 109.033C717.988 109.6 718.504 110.399 718.757 111.43L717.189 111.766L716.943 111.721C716.794 111.109 716.465 110.638 715.957 110.31C715.465 109.981 714.912 109.817 714.3 109.817C713.658 109.817 713.12 109.959 712.687 110.242C712.269 110.526 712.06 110.885 712.06 111.318C712.06 111.691 712.194 112.005 712.463 112.258C712.747 112.497 713.195 112.684 713.807 112.818L715.89 113.289C716.921 113.528 717.675 113.909 718.153 114.431C718.645 114.954 718.892 115.618 718.892 116.425C718.892 117.142 718.698 117.761 718.309 118.284C717.921 118.807 717.391 119.21 716.719 119.494C716.062 119.777 715.3 119.919 714.434 119.919ZM725.99 119.919C724.93 119.919 723.989 119.673 723.168 119.18C722.346 118.687 721.704 118 721.241 117.119C720.778 116.238 720.547 115.215 720.547 114.05C720.547 112.886 720.771 111.863 721.219 110.982C721.682 110.101 722.317 109.414 723.123 108.921C723.944 108.428 724.885 108.182 725.945 108.182C726.991 108.182 727.902 108.435 728.678 108.943C729.47 109.436 730.089 110.138 730.537 111.049C730.985 111.945 731.209 112.99 731.209 114.185V114.386L730.873 114.7H721.533V113.065H730.224L729.485 113.378C729.425 112.632 729.231 111.997 728.902 111.474C728.574 110.937 728.156 110.526 727.648 110.242C727.14 109.959 726.573 109.817 725.945 109.817C725.258 109.817 724.631 109.989 724.064 110.332C723.496 110.661 723.048 111.131 722.72 111.743C722.391 112.355 722.227 113.065 722.227 113.871V114.162C722.227 114.969 722.384 115.686 722.697 116.313C723.026 116.925 723.474 117.41 724.041 117.769C724.609 118.112 725.258 118.284 725.99 118.284C726.722 118.284 727.349 118.112 727.872 117.769C728.394 117.425 728.805 116.955 729.104 116.358H729.35L730.761 116.985C730.343 117.881 729.716 118.598 728.88 119.135C728.058 119.658 727.095 119.919 725.99 119.919Z" fill="#262626"/>
</svg>
