<svg width="124" height="105" viewBox="0 0 124 105" fill="none" xmlns="http://www.w3.org/2000/svg">
<path d="M55.2 0.199993V25.8C46.4 27.6667 39.4667 31.5333 34.4 37.4C29.3333 43.2667 26.8 50.0667 26.8 57.8C26.8 62.6 27.4667 67.1333 28.8 71.4L12.8 80.6C12.2667 78.7333 11.8667 77 11.6 75.4C11.3333 73.8 11.2 72.2 11.2 70.6C11.2 65.8 12.4 62.2 14.8 59.8C17.2 57.1333 19.8667 55.4 22.8 54.6C26 53.5333 28.6667 53 30.8 53C38.2667 53 44.4 55.5333 49.2 60.6C54.2667 65.4 56.8 71.4 56.8 78.6C56.8 85.8 54.2667 92.0667 49.2 97.4C44.4 102.467 38.2667 105 30.8 105C24.4 105 18.9333 103.133 14.4 99.4C10.1333 95.4 6.8 90.3333 4.4 84.2C2 78.0667 0.800001 71.5333 0.800001 64.6C0.800001 58.7333 1.73333 52.3333 3.6 45.4C5.46667 38.4667 8.4 31.8 12.4 25.4C16.6667 19 22.2667 13.5333 29.2 8.99998C36.4 4.19999 45.0667 1.26666 55.2 0.199993ZM121.6 0.199993V25.8C112.533 27.6667 105.467 31.5333 100.4 37.4C95.3333 43.2667 92.8 50.0667 92.8 57.8C92.8 62.6 93.6 67.1333 95.2 71.4L79.2 80.6C78.6667 78.7333 78.2667 77 78 75.4C77.7333 73.8 77.6 72.2 77.6 70.6C77.6 65.8 78.8 62.2 81.2 59.8C83.6 57.1333 86.2667 55.4 89.2 54.6C92.4 53.5333 94.9333 53 96.8 53C104.267 53 110.533 55.5333 115.6 60.6C120.667 65.4 123.2 71.4 123.2 78.6C123.2 85.8 120.667 92.0667 115.6 97.4C110.533 102.467 104.267 105 96.8 105C90.6667 105 85.3333 103.133 80.8 99.4C76.5333 95.4 73.2 90.3333 70.8 84.2C68.4 78.0667 67.2 71.5333 67.2 64.6C67.2 58.7333 68.1333 52.3333 70 45.4C71.8667 38.4667 74.8 31.8 78.8 25.4C83.0667 19 88.6667 13.5333 95.6 8.99998C102.8 4.19999 111.467 1.26666 121.6 0.199993Z" fill="#1C1C1C" fill-opacity="0.06"/>
</svg>
